<svg width="24" height="24" viewBox="0 0 24 24" fill="none" xmlns="http://www.w3.org/2000/svg">
<mask id="mask0" mask-type="alpha" maskUnits="userSpaceOnUse" x="3" y="8" width="18" height="8">
<path d="M12.0006 8.00001C12.2672 8.00001 12.5179 8.10032 12.7066 8.28166L19.8542 15.1751C19.9009 15.2198 19.9379 15.273 19.9631 15.3316C19.9882 15.3902 20.0011 15.4531 20.0009 15.5165C20.0009 15.6451 19.9489 15.7667 19.8542 15.8573C19.8081 15.9025 19.753 15.9384 19.6924 15.9629C19.6317 15.9874 19.5666 16 19.5009 16C19.4351 16 19.37 15.9874 19.3093 15.9629C19.2487 15.9384 19.1937 15.9025 19.1475 15.8573L12.0006 8.96457L4.85363 15.8573C4.80747 15.9025 4.75247 15.9384 4.69181 15.9629C4.63115 15.9874 4.56604 16 4.50028 16C4.43452 16 4.36941 15.9874 4.30875 15.9629C4.24809 15.9384 4.19308 15.9025 4.14693 15.8573C4.10009 15.8128 4.06288 15.7598 4.03749 15.7013C4.0121 15.6428 3.99902 15.58 3.99902 15.5165C3.99902 15.4531 4.0121 15.3903 4.03749 15.3318C4.06288 15.2733 4.10009 15.2202 4.14693 15.1757L11.2939 8.2823C11.3864 8.19245 11.4965 8.12123 11.6179 8.07277C11.7392 8.02431 11.8693 7.99957 12.0006 8.00001Z" fill="black"/>
</mask>
<g mask="url(#mask0)">
<rect width="24" height="24" fill="#161C2D" fill-opacity="0.68"/>
</g>
</svg>
