<svg width="40" height="40" viewBox="0 0 40 40" fill="none" xmlns="http://www.w3.org/2000/svg">
<mask id="mask0" mask-type="alpha" maskUnits="userSpaceOnUse" x="7" y="7" width="26" height="26">
<path fill-rule="evenodd" clip-rule="evenodd" d="M20.0012 8.66663C13.7413 8.66663 8.66675 13.7413 8.66675 20.0011C8.66675 26.261 13.7413 31.3357 20.0012 31.3357C26.261 31.3357 31.3356 26.261 31.3356 20.0011C31.3356 13.7413 26.261 8.66663 20.0012 8.66663ZM7.16675 20.0011C7.16675 12.9128 12.9129 7.16663 20.0012 7.16663C27.0894 7.16663 32.8356 12.9128 32.8356 20.0011C32.8356 27.0895 27.0894 32.8357 20.0012 32.8357C12.9129 32.8357 7.16675 27.0895 7.16675 20.0011ZM25.3629 14.6358C25.6558 14.9287 25.6558 15.4036 25.3629 15.6965L21.0597 20.0002L25.3634 24.3034C25.6563 24.5963 25.6563 25.0712 25.3634 25.3641C25.0706 25.657 24.5957 25.657 24.3028 25.3641L19.9991 21.0609L15.6965 25.3641C15.4036 25.657 14.9287 25.657 14.6358 25.3641C14.3429 25.0713 14.3429 24.5964 14.6357 24.3035L18.9384 20.0003L14.6342 15.6965C14.3413 15.4036 14.3412 14.9288 14.6341 14.6359C14.927 14.343 15.4019 14.3429 15.6948 14.6358L19.999 18.9396L24.3022 14.6359C24.5951 14.343 25.0699 14.3429 25.3629 14.6358Z" fill="#111111"/>
</mask>
<g mask="url(#mask0)">
<rect width="40" height="40" fill="#161C2D" fill-opacity="0.68"/>
</g>
</svg>
