<svg viewBox="0 0 48 48" fill="none" xmlns="http://www.w3.org/2000/svg">
    <mask id="mask0" mask-type="alpha" maskUnits="userSpaceOnUse" x="8" y="8" width="33" height="33">
    <path fill-rule="evenodd" clip-rule="evenodd" d="M13.3335 33.5333L16.8163 31.9198C16.9762 31.8299 17.1531 31.774 17.3356 31.7556C17.5182 31.7372 17.7027 31.7566 17.8774 31.8128C18.0521 31.869 18.2133 31.9606 18.351 32.0819C18.4887 32.2033 18.5998 32.3517 18.6775 32.518C18.7551 32.6843 18.7976 32.8648 18.8023 33.0483C18.807 33.2317 18.7738 33.4142 18.7047 33.5842C18.6356 33.7543 18.5322 33.9082 18.4009 34.0364C18.2696 34.1646 18.1132 34.2643 17.9416 34.3293L10.9961 37.5523C10.745 37.6674 10.4645 37.7024 10.1928 37.6526C9.92106 37.6027 9.67129 37.4704 9.47738 37.2736C9.28435 37.0763 9.15783 36.8235 9.11552 36.5507C9.0732 36.2779 9.1172 35.9987 9.24137 35.7522L12.0761 30.1103C10.8137 29.0035 9.79831 27.6434 9.09604 26.1183C8.39377 24.5933 8.02033 22.9375 8 21.2587C8 13.9486 15.1775 8 24.0005 8C32.0247 8 38.8462 12.9645 39.8676 19.5452C39.9834 20.2864 40.025 21.0373 39.9916 21.7867C39.9753 22.1404 39.8192 22.4731 39.5577 22.7117C39.2961 22.9502 38.9505 23.0751 38.5969 23.0589C38.2432 23.0426 37.9106 22.8865 37.672 22.6249C37.4335 22.3634 37.3086 22.0177 37.3248 21.6641C37.3511 21.0925 37.3198 20.5198 37.2315 19.9546C36.4102 14.6593 30.7207 10.6589 24.0005 10.6589C16.6482 10.6589 10.6667 15.4141 10.6667 21.2587C10.7019 22.7204 11.0712 24.1546 11.7463 25.4515C12.4214 26.7484 13.3844 27.8736 14.5615 28.7408C14.7986 28.9313 14.9635 29.1972 15.0288 29.4943C15.094 29.7914 15.0557 30.1019 14.9202 30.3743L13.3335 33.5333ZM31.3713 16.3657C31.5584 16.5515 31.6644 16.8039 31.6661 17.0676C31.6675 17.1996 31.6427 17.3306 31.5932 17.4529C31.5436 17.5752 31.4702 17.6865 31.3773 17.7803C31.2844 17.874 31.1738 17.9484 31.052 17.9992C30.9301 18.0499 30.7994 18.0759 30.6674 18.0757H16.667C16.4018 18.0757 16.1474 17.9703 15.9599 17.7828C15.7724 17.5952 15.667 17.3408 15.667 17.0756C15.667 16.8104 15.7724 16.556 15.9599 16.3684C16.1474 16.1809 16.4018 16.0755 16.667 16.0755H30.6674C30.9311 16.0755 31.1842 16.1798 31.3713 16.3657ZM16.667 22.0574C16.5357 22.0574 16.4057 22.0833 16.2843 22.1336C16.163 22.1838 16.0528 22.2575 15.9599 22.3504C15.867 22.4432 15.7934 22.5535 15.7431 22.6748C15.6929 22.7962 15.667 22.9262 15.667 23.0575C15.667 23.1889 15.6929 23.3189 15.7431 23.4403C15.7934 23.5616 15.867 23.6718 15.9599 23.7647C16.0528 23.8576 16.163 23.9313 16.2843 23.9815C16.4057 24.0318 16.5357 24.0576 16.667 24.0576H21.3338C21.4651 24.0576 21.5952 24.0318 21.7165 23.9815C21.8378 23.9313 21.9481 23.8576 22.0409 23.7647C22.1338 23.6718 22.2075 23.5616 22.2577 23.4403C22.308 23.3189 22.3339 23.1889 22.3339 23.0575C22.3339 22.9262 22.308 22.7962 22.2577 22.6748C22.2075 22.5535 22.1338 22.4432 22.0409 22.3504C21.9481 22.2575 21.8378 22.1838 21.7165 22.1336C21.5952 22.0833 21.4651 22.0574 21.3338 22.0574H16.667ZM40.0015 29.9889C39.9859 31.7181 39.3402 33.3822 38.1854 34.6694L39.2775 38.2991C39.3509 38.5481 39.3501 38.8131 39.2751 39.0616C39.2001 39.3101 39.0541 39.5314 38.8552 39.6981C38.6563 39.8649 38.4131 39.97 38.1553 40.0005C37.8975 40.0311 37.6364 39.9857 37.4041 39.8699L32.9506 37.647C32.1632 37.8269 31.3583 37.919 30.5505 37.9217C25.3344 37.9217 21.0996 34.3627 21.0996 29.9889C21.0996 25.6151 25.3411 22.0574 30.5519 22.0574C35.7627 22.0574 40.0015 25.6151 40.0015 29.9889ZM35.836 36.1122L35.408 34.6907V34.6867C35.3375 34.4501 35.334 34.1985 35.3981 33.9599C35.4621 33.7214 35.5911 33.5054 35.7707 33.3359C36.248 32.9159 36.6333 32.4018 36.9024 31.8259C37.1716 31.2499 37.3188 30.6245 37.3347 29.9889C37.3347 27.0819 34.292 24.7204 30.5505 24.7204C26.8091 24.7204 23.7664 27.0859 23.7664 29.9929C23.7664 33.4586 28.0971 36.2229 32.7639 34.9601C33.0803 34.8737 33.4173 34.907 33.7106 35.0534L35.836 36.1122Z" fill="#111111"/>
    </mask>
    <g mask="url(#mask0)">
    <rect width="48" height="48" fill="#161C2D" fill-opacity="0.68"/>
    </g>
</svg>
    