<svg width="24" height="24" viewBox="0 0 24 24" fill="none" xmlns="http://www.w3.org/2000/svg">
<mask id="mask0" mask-type="alpha" maskUnits="userSpaceOnUse" x="3" y="3" width="18" height="18">
<path fill-rule="evenodd" clip-rule="evenodd" d="M8.46281 3.25H8.4628C7.21915 3.24999 6.01982 3.71192 5.0975 4.54619C4.17517 5.38045 3.59561 6.52757 3.47124 7.765C3.47021 7.7753 3.46939 7.78562 3.46878 7.79596L3.25544 11.4226L3.25542 11.4226L3.25512 11.4285C3.20855 12.3423 3.48066 13.2439 4.02497 13.9794C4.56928 14.7148 5.35204 15.2385 6.23956 15.461C6.24694 15.4629 6.25435 15.4646 6.26178 15.4662L7.28321 15.6895C7.34891 15.7074 7.40716 15.746 7.44922 15.7998C7.49274 15.8554 7.51644 15.9239 7.51653 15.9945L7.51653 15.9948L7.51653 18.4C7.51653 19.0233 7.76412 19.621 8.20483 20.0617C8.64554 20.5024 9.24327 20.75 9.86653 20.75C10.4898 20.75 11.0875 20.5024 11.5282 20.0617C11.9689 19.621 12.2165 19.0233 12.2165 18.4V17.2949C12.2165 16.0794 12.6994 14.9136 13.5589 14.054C14.2397 13.3732 15.1127 12.9287 16.0503 12.7733V13.6C16.0503 14.0142 16.3861 14.35 16.8003 14.35H20.0003C20.4145 14.35 20.7503 14.0142 20.7503 13.6V4C20.7503 3.58579 20.4145 3.25 20.0003 3.25H16.8003C16.3861 3.25 16.0503 3.58579 16.0503 4V4.22113C15.9993 4.20901 15.9486 4.19574 15.8982 4.18131L15.8979 4.18124L13.3139 3.44314L13.3137 3.44311C12.866 3.31514 12.4025 3.25014 11.9368 3.25H11.9366H8.46281ZM6.10372 5.65862C6.75027 5.0738 7.59099 4.74999 8.46279 4.75H8.4628H11.9363H11.9365H11.9366C12.263 4.75012 12.5878 4.79569 12.9017 4.88539L12.9018 4.88542L15.4857 5.62349L15.4857 5.6235L15.4859 5.62356C15.6715 5.67662 15.8598 5.7188 16.0498 5.74996V11.258C14.7129 11.4241 13.4609 12.0307 12.4983 12.9934C11.3574 14.1342 10.7165 15.6815 10.7165 17.2949V18.4C10.7165 18.6254 10.627 18.8416 10.4676 19.001C10.3082 19.1604 10.092 19.25 9.86653 19.25C9.6411 19.25 9.4249 19.1604 9.26549 19.001C9.10609 18.8416 9.01653 18.6254 9.01653 18.4V15.9943V15.9939C9.01629 15.5883 8.88034 15.1945 8.63036 14.8751C8.38037 14.5558 8.03071 14.3293 7.63708 14.2317L7.61672 14.2269L6.59395 14.0034C6.04772 13.864 5.56618 13.5404 5.23068 13.087C4.89361 12.6316 4.72484 12.0734 4.75304 11.5076L4.96523 7.90029C5.05551 7.03848 5.46083 6.24013 6.10372 5.65862ZM17.5503 12.85V4.75H19.2503V12.85H17.5503Z" fill="#111111"/>
</mask>
<g mask="url(#mask0)">
<rect width="24" height="24" fill="#161C2D" fill-opacity="0.68"/>
</g>
</svg>
