<svg width="24" height="24" viewBox="0 0 24 24" fill="none" xmlns="http://www.w3.org/2000/svg">
<mask id="mask0" mask-type="alpha" maskUnits="userSpaceOnUse" x="5" y="4" width="14" height="16">
<path fill-rule="evenodd" clip-rule="evenodd" d="M5.27585 4.29289C5.45247 4.10536 5.69203 4 5.94181 4C6.19159 4 6.43114 4.10536 6.60777 4.29289C6.78439 4.48043 6.88362 4.73478 6.88362 5V19C6.88362 19.2652 6.78439 19.5196 6.60777 19.7071C6.43114 19.8946 6.19159 20 5.94181 20C5.69203 20 5.45247 19.8946 5.27585 19.7071C5.09923 19.5196 5 19.2652 5 19V5C5 4.73478 5.09923 4.48043 5.27585 4.29289ZM13.947 7H17.5572C17.8068 7.00035 18.046 7.10587 18.2224 7.29336C18.3987 7.48086 18.4978 7.73501 18.4978 8V14.6667C18.4978 14.9319 18.3985 15.1862 18.2219 15.3738C18.0453 15.5613 17.8057 15.6667 17.556 15.6667H10.3982C10.2955 15.6668 10.1942 15.6401 10.1034 15.589C10.0126 15.5379 9.93505 15.464 9.87746 15.3736C9.81988 15.2832 9.78406 15.1792 9.77315 15.0707C9.76225 14.9622 9.77659 14.8526 9.81492 14.7513C10.0224 14.2866 10.3663 13.906 10.795 13.6667H8.13913C8.05587 13.6667 7.97602 13.6315 7.91715 13.569C7.85827 13.5065 7.8252 13.4217 7.8252 13.3333V5.33333C7.8252 5.24493 7.85827 5.16014 7.91715 5.09763C7.97602 5.03512 8.05587 5 8.13913 5H11.9064C12.1561 5 12.3957 5.10536 12.5723 5.29289C12.7489 5.48043 12.8482 5.73478 12.8482 6V12.5167C12.8482 12.6493 12.8978 12.7765 12.9861 12.8702C13.0744 12.964 13.1942 13.0167 13.3191 13.0167C13.444 13.0167 13.5637 12.964 13.6521 12.8702C13.7404 12.7765 13.79 12.6493 13.79 12.5167V7.16667C13.79 7.12246 13.8065 7.08007 13.836 7.04882C13.8654 7.01756 13.9053 7 13.947 7Z" fill="#111111"/>
</mask>
<g mask="url(#mask0)">
<rect width="24" height="24" fill="#161C2D" fill-opacity="0.68"/>
</g>
</svg>
