<svg width="24" height="24" viewBox="0 0 24 24" fill="none" xmlns="http://www.w3.org/2000/svg">
<mask id="mask0" mask-type="alpha" maskUnits="userSpaceOnUse" x="3" y="3" width="19" height="18">
<path d="M10.05 7.86207C11.1131 7.86207 11.975 6.99751 11.975 5.93103C11.975 4.86455 11.1131 4 10.05 4C8.98685 4 8.125 4.86455 8.125 5.93103C8.125 6.99751 8.98685 7.86207 10.05 7.86207Z" stroke="#111111" stroke-width="1.5" stroke-linecap="round" stroke-linejoin="round"/>
<path d="M10.5999 20C10.3693 19.9999 10.1444 19.927 9.95731 19.7917C9.77018 19.6564 9.63019 19.4655 9.55714 19.246L8.70721 16.6896H6.19994C6.0124 16.6897 5.82795 16.6417 5.66413 16.5501C5.50031 16.4585 5.36255 16.3264 5.26394 16.1664C5.16533 16.0064 5.10914 15.8237 5.10072 15.6358C5.0923 15.4478 5.13191 15.2608 5.21581 15.0926L7.96581 9.57535C8.03039 9.44568 8.11982 9.33005 8.22897 9.23506C8.33813 9.14007 8.46487 9.06758 8.60196 9.02174C8.73904 8.9759 8.88379 8.95761 9.02793 8.96791C9.17207 8.9782 9.31277 9.01688 9.44201 9.08174L11.4095 10.069H13.9029C14.1946 10.069 14.4744 10.1852 14.6807 10.3922C14.887 10.5991 15.0029 10.8798 15.0029 11.1724C15.0029 11.4651 14.887 11.7457 14.6807 11.9527C14.4744 12.1596 14.1946 12.2759 13.9029 12.2759H11.1499C10.9791 12.276 10.8107 12.2362 10.6579 12.1596L9.44201 11.5498L7.97974 14.4828H9.49994C9.73062 14.4829 9.95543 14.5557 10.1426 14.6911C10.3297 14.8264 10.4697 15.0173 10.5427 15.2368L11.6427 18.5471C11.6979 18.713 11.713 18.8896 11.6868 19.0624C11.6606 19.2353 11.5939 19.3994 11.492 19.5413C11.3902 19.6832 11.2562 19.7988 11.1011 19.8785C10.946 19.9583 10.7742 19.9999 10.5999 20V20Z" stroke="#111111" stroke-width="1.5" stroke-linecap="round" stroke-linejoin="round"/>
<path d="M4 16.6897H6.2V20" stroke="#111111" stroke-width="1.5" stroke-linecap="round" stroke-linejoin="round"/>
<path d="M13.8999 12.2758H20.4999" stroke="#111111" stroke-width="1.5" stroke-linecap="round" stroke-linejoin="round"/>
<path d="M13.8999 16.1379H19.3999" stroke="#111111" stroke-width="1.5" stroke-linecap="round" stroke-linejoin="round"/>
<path d="M15.5501 12.2758L13.3501 20" stroke="#111111" stroke-width="1.5" stroke-linecap="round" stroke-linejoin="round"/>
<path d="M17.75 12.2758L19.95 20" stroke="#111111" stroke-width="1.5" stroke-linecap="round" stroke-linejoin="round"/>
</mask>
<g mask="url(#mask0)">
<rect width="24" height="24" fill="#161C2D" fill-opacity="0.68"/>
</g>
</svg>
