<?xml version="1.0" encoding="UTF-8"?>
<!DOCTYPE svg PUBLIC "-//W3C//DTD SVG 1.1//EN" "http://www.w3.org/Graphics/SVG/1.1/DTD/svg11.dtd">
<!-- Creator: CorelDRAW 2020 (64-Bit) -->
<svg xmlns="http://www.w3.org/2000/svg" xml:space="preserve" width="250mm" height="152mm" version="1.1" style="shape-rendering:geometricPrecision; text-rendering:geometricPrecision; image-rendering:optimizeQuality; fill-rule:evenodd; clip-rule:evenodd"
viewBox="0 0 24998.92 15199.35"
 xmlns:xlink="http://www.w3.org/1999/xlink"
 xmlns:xodm="http://www.corel.com/coreldraw/odm/2003">
 <defs>
  <style type="text/css">
   <![CDATA[
    .fil0 {fill:none}
    .fil1 {fill:#F1F1F1}
    .fil5 {fill:#F04647;fill-opacity:0.800000}
    .fil4 {fill:#55B16E}
    .fil3 {fill:#FFBC30}
    .fil2 {fill:white}
   ]]>
  </style>
 </defs>
 <g id="Layer_x0020_1">
  <metadata id="CorelCorpID_0Corel-Layer"/>
  <g id="_2763480018432">
   <rect class="fil0" x="-0.01" width="24998.92" height="15199.35"/>
   <g>
    <path class="fil1" d="M12189.73 13757.1c-56.2,0 -84.3,18.56 -84.3,55.68 0,16.5 6.96,29.13 20.88,37.9 13.92,8.76 46.53,21.39 97.83,37.89 51.3,16.5 87.26,35.19 107.89,56.07 20.62,20.88 30.93,52.98 30.93,96.29 0,55.16 -16.75,96.93 -50.27,125.27 -33.51,28.36 -77.33,42.54 -131.46,42.54 -40.22,0 -89.45,-6.19 -147.71,-18.56l-27.84 -5.41 10.83 -82.76c69.09,9.28 121.93,13.92 158.53,13.92 54.65,0 81.98,-22.68 81.98,-68.05 0,-16.5 -6.32,-29.39 -18.95,-38.67 -12.63,-9.28 -37.76,-19.34 -75.4,-30.16 -59.81,-17.02 -101.96,-37.25 -126.44,-60.71 -24.49,-23.46 -36.73,-56.07 -36.73,-97.84 0,-52.59 15.98,-91.77 47.94,-117.54 31.97,-25.78 75.8,-38.67 131.47,-38.67 38.15,0 86.62,5.16 145.38,15.47l27.85 5.41 -8.51 84.3c-72.7,-8.25 -123.99,-12.37 -153.89,-12.37zm1746.68 -1528.32l0 -75.6c0,-48.9 31.72,-91.36 79.34,-103.62l117.32 -30.57c113.57,-27.32 197.46,-130.44 198.44,-247.42 0,-479.89 0,-959.77 0,-1439.66 7.56,-592.03 468.95,-1074.67 1074.67,-1074.67 258.87,0 409.5,68.28 595.01,220.72 337.11,283.47 155.97,865.62 -261.11,865.62 -220.13,0 -398.58,-222.27 -398.58,-398.58 0,-176.31 64.67,-249.88 164.15,-322.35 24.87,-19.36 40.88,-49.59 40.88,-83.56 0,-80.64 -69.51,-114.93 -140.35,-114.93 -192.89,0 -349.28,156.39 -349.28,349.29l0 906.98 551.12 0 0 200.33 -551.12 0 0 884.84 0 5.96c0.99,116.98 84.89,220.1 198.43,247.42l117.35 30.57c47.62,12.26 79.31,54.72 79.31,103.62l0 75.6 -1515.6 0zm1336.63 -5252.83c593.53,0 1074.68,481.16 1074.68,1074.67 0,593.53 -481.15,1074.67 -1074.68,1074.67 -593.51,0 -1074.67,-481.14 -1074.67,-1074.67 0,-593.51 481.16,-1074.67 1074.67,-1074.67zm349.29 1633.15c0,192.87 -156.38,349.28 -349.29,349.28 -192.89,0 -349.28,-156.4 -349.28,-349.28 0,-372.31 0,-744.63 0,-1116.94 0,-192.88 156.38,-349.28 349.28,-349.28 192.91,0 349.29,156.39 349.29,349.28 0,372.31 0,744.63 0,1116.94zm-2548.15 1470.32c593.52,0 1074.67,481.14 1074.67,1074.67 0,593.53 -481.15,1074.68 -1074.67,1074.68 -593.53,0 -1074.68,-481.15 -1074.68,-1074.68 0,-593.53 481.15,-1074.67 1074.68,-1074.67zm349.29 1633.13c0,192.9 -156.39,349.28 -349.29,349.28 -192.9,0 -349.29,-156.37 -349.29,-349.28 0,-372.31 0,-744.62 0,-1116.92 0,-192.9 156.37,-349.28 349.29,-349.28 192.9,0 349.29,156.37 349.29,349.28 0,372.3 0,744.61 0,1116.92zm-213.87 -5558.77l725.4 0 395.08 0 0 75.6c0,48.88 -31.7,91.36 -79.3,103.63l-117.34 30.56c-113.57,27.31 -197.46,130.44 -198.44,247.43l0 1.76c0,1.38 -0.01,2.78 0.02,4.18l-0.02 0 0 1433.7c-7.56,592.04 -468.96,1074.67 -1074.67,1074.67 -258.86,0 -496.32,-91.54 -681.84,-243.97 -109.42,-92.02 -178.98,-229.89 -178.98,-384.03 0,-153.01 68.53,-290.01 176.55,-381.98 70.26,-61.99 162.5,-99.61 263.54,-99.61 220.13,0 398.59,178.45 398.59,398.58 0,132.48 -64.67,249.88 -164.15,322.35 -24.87,19.36 -40.89,49.59 -40.89,83.56 0,38.89 19.61,70.65 52.04,91.14 51.47,29.89 111.31,47.05 175.14,47.05 192.88,0 349.28,-156.4 349.28,-349.28l0 -1992.17 -0.03 0 0.03 -4.18 0 -1.76c-0.98,-116.99 -84.88,-220.12 -198.44,-247.43l-117.34 -30.56c-47.6,-12.27 -79.32,-54.75 -79.32,-103.63l0 -75.6 395.1 0zm9714.7 3925.94c593.53,0 1074.68,481.15 1074.68,1074.66 0,40.07 -2.26,79.61 -6.54,118.51 -472.46,0 -944.95,0 -1417.43,0 -26.66,668.67 721.28,949.07 1014.13,550.89 16.21,-22.03 51.08,-46.9 -12.44,-104.96 -29.89,-34.14 -48.04,-78.86 -48.04,-127.8 0,-107.19 86.91,-194.07 194.09,-194.07 131.39,0 191.31,90.08 189.87,210.2 -60.37,342.28 -407.06,652.27 -988.33,621.9 -593.47,-7.14 -1074.67,-481.15 -1074.67,-1074.67 0,-593.51 481.16,-1074.66 1074.67,-1074.66zm-349.29 980.48l698.57 0 0 -464.27c0,-192.91 -156.37,-349.29 -349.29,-349.29 -192.9,0 -349.29,156.37 -349.29,349.29l0 464.27zm-2088.96 1168.85c-300.1,0 -557.04,-105.03 -770.85,-316.97 -215.67,-210.06 -322.6,-461.38 -322.6,-755.83 0,-288.85 106.93,-540.17 318.85,-755.86 210.63,-212.46 467.53,-319.36 768.91,-320.68 291.68,0 562.41,117.85 767.16,324.43 211.8,213.66 318.69,462.29 320.67,744.09l0.05 1208.16c-4.58,359.72 -181.57,679.06 -455.64,874.28 -400.09,284.99 -1156.96,271.99 -1540.98,-43.58 -109.44,-92.02 -179,-229.89 -179,-384.03 0,-153 68.53,-290 176.55,-381.99 70.26,-61.99 162.5,-99.6 263.55,-99.6 220.14,0 398.59,178.46 398.59,398.59 0,132.48 -64.67,249.87 -164.15,322.34 -24.88,19.37 -40.88,49.6 -40.88,83.56 0,38.9 19.61,70.64 52.01,91.16 51.48,29.9 111.33,47.03 175.15,47.03 720.86,0 576.28,-592.62 576.28,-1090.77 -107.98,37.06 -222.38,55.68 -343.66,55.68zm-354.9 -1633.15l0 1116.93c0,192.89 156.37,349.29 349.28,349.29 192.9,0 349.29,-156.39 349.29,-349.29l0 -564.6 0 -552.34c0,-192.9 -156.38,-349.29 -349.29,-349.29 -192.9,0 -349.28,156.38 -349.28,349.29zm-1724.89 1137.81l-194.42 -473.2 -996.09 0c-84.07,230.21 -143.22,392.2 -184.47,505.11l0 0.01 -169.14 463.15 -606.28 0 0 -75.6c0,-48.9 31.7,-91.36 79.31,-103.62l117.34 -30.57c90.7,-21.82 213.45,-91.99 261.04,-178.97l1.13 -1.99c35.24,-66.82 163.04,-367.11 382.83,-900.96l422.78 -1025.89c158.92,-114.87 292.55,-279.9 404.29,-480.89 6.72,-12.09 70.78,-135.39 71.12,-135.51l187.62 0 850 2111.12c94.77,236.9 160.23,388.81 196.44,455.41 45.37,76.99 139.33,137.67 222.51,157.68l117.34 30.57c47.61,12.26 79.31,54.72 79.31,103.62l0 75.6 -1039.26 0 -203.41 -495.07zm-699.41 -1720.39l-411.8 1046.87 833.31 0 -421.51 -1046.87zm-964.29 -102.3c-297.86,-75.39 -591.94,-272.82 -591.94,-593.06 0,-242.9 186.24,-481.59 440.1,-481.59 220.12,0 398.58,222.28 398.58,398.6 0,176.3 -64.68,249.87 -164.16,322.34 -24.88,19.37 -40.88,49.59 -40.88,83.55 0,38.9 19.6,70.65 52.02,91.16 51.47,29.9 111.32,47.03 175.13,47.03 273.7,0 462.59,-362.08 366.71,-576.29l-818.71 -1829.35c-44.2,-98.87 -49.65,-158.94 -169.18,-187.66l-117.33 -30.58c-47.61,-12.27 -79.31,-54.72 -79.31,-103.63l0 -75.59 982.5 0 314.36 702.25 332.33 742.38 329.16 -735.34 317.5 -709.29 585.12 0 0 75.59c0,48.91 -31.69,91.36 -79.31,103.63l-117.33 30.58c-99.47,23.91 -110.42,56.52 -147.12,138.53l-695.41 1553.76c-75.03,167.62 -145.43,330.62 -226.65,476.71 -248.75,447.42 -579.52,656.25 -1046.16,556.28zm7083.12 3846.08c-56.2,0 -84.3,18.56 -84.3,55.68 0,16.5 6.96,29.13 20.88,37.9 13.92,8.76 46.53,21.39 97.83,37.89 51.3,16.5 87.26,35.19 107.89,56.07 20.62,20.88 30.93,52.98 30.93,96.29 0,55.16 -16.75,96.93 -50.27,125.27 -33.51,28.36 -77.33,42.54 -131.46,42.54 -40.22,0 -89.45,-6.19 -147.71,-18.56l-27.84 -5.41 10.83 -82.76c69.09,9.28 121.93,13.92 158.53,13.92 54.65,0 81.98,-22.68 81.98,-68.05 0,-16.5 -6.32,-29.39 -18.95,-38.67 -12.63,-9.28 -37.76,-19.34 -75.4,-30.16 -59.81,-17.02 -101.96,-37.25 -126.44,-60.71 -24.49,-23.46 -36.73,-56.07 -36.73,-97.84 0,-52.59 15.98,-91.77 47.94,-117.54 31.97,-25.78 75.8,-38.67 131.47,-38.67 38.15,0 86.62,5.16 145.38,15.47l27.85 5.41 -8.51 84.3c-72.7,-8.25 -123.99,-12.37 -153.89,-12.37zm-726.23 10.82l0 -94.35 386.67 0 0 94.35 -139.19 0 0 431.53 -106.73 0 0 -431.53 -140.75 0zm-322.53 -10.82c-56.2,0 -84.3,18.56 -84.3,55.68 0,16.5 6.96,29.13 20.88,37.9 13.92,8.76 46.53,21.39 97.83,37.89 51.3,16.5 87.26,35.19 107.89,56.07 20.62,20.88 30.93,52.98 30.93,96.29 0,55.16 -16.75,96.93 -50.27,125.27 -33.51,28.36 -77.33,42.54 -131.46,42.54 -40.22,0 -89.45,-6.19 -147.71,-18.56l-27.84 -5.41 10.83 -82.76c69.09,9.28 121.93,13.92 158.53,13.92 54.65,0 81.98,-22.68 81.98,-68.05 0,-16.5 -6.32,-29.39 -18.95,-38.67 -12.63,-9.28 -37.76,-19.34 -75.4,-30.16 -59.81,-17.02 -101.96,-37.25 -126.44,-60.71 -24.49,-23.46 -36.73,-56.07 -36.73,-97.84 0,-52.59 15.98,-91.77 47.94,-117.54 31.97,-25.78 75.8,-38.67 131.47,-38.67 38.15,0 86.62,5.16 145.38,15.47l27.85 5.41 -8.51 84.3c-72.7,-8.25 -123.99,-12.37 -153.89,-12.37zm-675.95 266.8c0,61.36 31.19,92.03 93.58,92.03 62.38,0 93.57,-30.67 93.57,-92.03l0 -350.33 106.73 0 0 348.01c0,64.45 -16.63,111.76 -49.88,141.91 -33.26,30.16 -83.4,45.24 -150.41,45.24 -67.03,0 -117.16,-15.08 -150.42,-45.24 -33.25,-30.16 -49.88,-77.47 -49.88,-141.91l0 -348.01 106.73 0 0 350.33zm-585.47 -0.77l0 176.32 -106.73 0 0 -525.88 204.16 0c123.73,0 185.6,57.75 185.6,173.23 0,68.57 -25.78,119.09 -77.33,151.57l75.01 201.07 -116.78 0 -61.09 -176.32 -102.86 0zm98.99 -91.26c25.26,0 44.08,-7.73 56.46,-23.2 12.37,-15.47 18.56,-35.83 18.56,-61.1 0,-25.26 -6.58,-45.37 -19.72,-60.32 -13.15,-14.95 -32.1,-22.43 -56.85,-22.43l-97.44 0 0 167.04 98.99 0zm-770.31 -163.95l0 -94.35 386.67 0 0 94.35 -139.19 0 0 431.53 -106.73 0 0 -431.53 -140.75 0zm-743.22 431.53l118.31 -525.88 202.62 0 118.32 525.88 -106.73 0 -20.88 -95.13 -184.05 0 -20.89 95.13 -106.72 0zm201.07 -437.71l-53.37 249.79 143.84 0 -53.36 -249.79 -37.12 0zm-692.97 6.18l0 -94.35 386.67 0 0 94.35 -139.19 0 0 431.53 -106.73 0 0 -431.53 -140.75 0zm-544.48 431.53l118.31 -525.88 202.62 0 118.32 525.88 -106.73 0 -20.88 -95.13 -184.05 0 -20.89 95.13 -106.72 0zm201.07 -437.71l-53.37 249.79 143.84 0 -53.36 -249.79 -37.12 0zm-692.98 6.18l0 -94.35 386.67 0 0 94.35 -139.19 0 0 431.53 -106.73 0 0 -431.53 -140.75 0zm-452.44 431.53l-106.73 0 0 -212.67 -162.4 -313.21 118.32 0 96.67 209.58 96.67 -209.58 118.32 0 -160.85 313.21 0 212.67zm-776.49 -525.88l206.48 0c54.65,0 95.64,10.96 122.96,32.87 27.33,21.91 40.99,57.36 40.99,106.34 0,29.39 -4.38,52.72 -13.15,69.99 -8.76,17.27 -23.72,32.61 -44.85,46.02 23.2,9.79 40.34,23.97 51.43,42.53 11.08,18.56 16.62,44.34 16.62,77.34 0,51.04 -14.95,88.94 -44.85,113.69 -29.91,24.75 -71.93,37.12 -126.05,37.12l-209.58 0 0 -525.88zm204.16 306.25l-97.44 0 0 128.37 97.44 0c23.2,0 40.35,-4.64 51.43,-13.92 11.09,-9.28 16.63,-26.29 16.63,-51.04 0,-42.28 -22.69,-63.42 -68.06,-63.42zm-3.09 -214.99l-94.35 0 0 125.28 95.12 0c40.22,0 60.33,-20.88 60.33,-62.65 0,-41.76 -20.37,-62.64 -61.1,-62.64zm-798.15 434.62l-177.09 0 0 -525.88 177.09 0c45.38,0 82.76,4.77 112.14,14.31 29.39,9.54 52.21,25.26 68.45,47.18 16.24,21.91 27.45,47.69 33.64,77.33 6.19,29.65 9.28,68.19 9.28,115.62 0,47.44 -2.83,86.75 -8.51,117.93 -5.67,31.2 -16.37,59.04 -32.09,83.53 -15.73,24.49 -38.54,42.28 -68.45,53.36 -29.9,11.09 -68.05,16.63 -114.46,16.63zm112.14 -208.8c1.04,-16.5 1.55,-39.32 1.55,-68.45 0,-29.13 -1.03,-52.46 -3.09,-69.99 -2.06,-17.53 -6.96,-33.51 -14.7,-47.95 -7.73,-14.43 -19.2,-24.36 -34.41,-29.77 -15.21,-5.42 -35.71,-8.12 -61.49,-8.12l-70.37 0 0 340.27 70.37 0c38.67,0 66.77,-9.79 84.3,-29.38 14.95,-15.99 24.24,-44.86 27.84,-86.62zm-828.29 208.8l0 -525.88 340.28 0 0 92.81 -233.55 0 0 122.95 187.14 0 0 91.26 -187.14 0 0 126.05 233.55 0 0 92.81 -340.28 0zm-564.6 -431.53l0 -94.35 386.67 0 0 94.35 -139.19 0 0 431.53 -106.73 0 0 -431.53 -140.75 0zm-436.21 255.21l0 176.32 -106.73 0 0 -525.88 204.16 0c123.73,0 185.6,57.75 185.6,173.23 0,68.57 -25.78,119.09 -77.33,151.57l75.01 201.07 -116.78 0 -61.09 -176.32 -102.86 0zm98.99 -91.26c25.26,0 44.08,-7.73 56.46,-23.2 12.37,-15.47 18.56,-35.83 18.56,-61.1 0,-25.26 -6.58,-45.37 -19.72,-60.32 -13.15,-14.95 -32.1,-22.43 -56.85,-22.43l-97.44 0 0 167.04 98.99 0zm-711.14 143.45c15.21,27.07 43.7,40.6 85.46,40.6 41.76,0 70.25,-13.53 85.46,-40.6 15.21,-27.07 22.82,-72.44 22.82,-136.1 0,-63.68 -7.74,-109.95 -23.21,-138.81 -15.46,-28.88 -43.82,-43.31 -85.07,-43.31 -41.25,0 -69.6,14.43 -85.07,43.31 -15.47,28.87 -23.2,75.14 -23.2,138.81 0,63.67 7.6,109.04 22.81,136.1zm254.44 68.06c-32.74,43.57 -89.07,65.35 -168.98,65.35 -79.91,0 -136.23,-21.78 -168.97,-65.35 -32.74,-43.57 -49.11,-111.75 -49.11,-204.55 0,-92.8 16.37,-161.75 49.11,-206.87 32.74,-45.11 89.07,-67.67 168.97,-67.67 79.92,0 136.24,22.56 168.98,67.67 32.74,45.12 49.11,114.08 49.11,206.87 0,92.81 -16.37,160.98 -49.11,204.55zm-736.66 -97.06l-86.62 0 0 153.12 -106.73 0 0 -525.88 193.34 0c124.76,0 187.14,60.84 187.14,182.51 0,61.35 -15.85,108.4 -47.56,141.13 -31.71,32.74 -78.24,49.11 -139.58,49.11zm-86.62 -91.26l85.84 0c53.11,0 79.66,-33 79.66,-98.99 0,-32.48 -6.44,-55.81 -19.33,-69.99 -12.89,-14.18 -33,-21.27 -60.33,-21.27l-85.84 0 0 190.24zm-479.53 91.26l-86.62 0 0 153.12 -106.73 0 0 -525.88 193.34 0c124.76,0 187.15,60.84 187.15,182.51 0,61.35 -15.86,108.4 -47.57,141.13 -31.71,32.74 -78.24,49.11 -139.58,49.11zm-86.62 -91.26l85.84 0c53.11,0 79.66,-33 79.66,-98.99 0,-32.48 -6.44,-55.81 -19.33,-69.99 -12.89,-14.18 -33,-21.27 -60.33,-21.27l-85.84 0 0 190.24zm-621.04 68.83c0,61.36 31.19,92.03 93.58,92.03 62.38,0 93.57,-30.67 93.57,-92.03l0 -350.33 106.73 0 0 348.01c0,64.45 -16.63,111.76 -49.88,141.91 -33.26,30.16 -83.4,45.24 -150.41,45.24 -67.03,0 -117.16,-15.08 -150.42,-45.24 -33.25,-30.16 -49.88,-77.47 -49.88,-141.91l0 -348.01 106.73 0 0 350.33z"/>
    <g>
     <path class="fil2" d="M4827.41 3921.13c-440.08,-672.48 -414.93,-1481.58 509.93,-1504.43 1658.47,-41.02 462.75,2990.71 -509.93,1504.43zm1417.93 1608.45c987.05,2044.88 2705.53,8845.31 178.11,8656.64 -4237.23,0 -3372.61,-7020.87 -2131.16,-9131.18 394.97,-671.44 1579.04,-300.4 1953.05,474.54z"/>
     <path class="fil3" d="M9238.25 1010.23c-1153.8,-155.88 -1597.13,651.51 -1509.54,1250.93 90.76,620.98 819.49,1163.18 1452.66,364.5 535.05,-674.92 842.92,-1509.23 56.88,-1615.43zm-409.16 13175.99c1910.49,0 2269.08,-1483.12 2149.87,-3781.81 -41.83,-806.62 -307.31,-4475.5 -772.2,-6216.97 -108.87,-407.81 -209.35,-959.13 -709.36,-953.35 -485.43,5.67 -1040.88,457.85 -1304.59,1073.03 -1097.07,2559.08 -4044.98,9879.1 636.28,9879.1z"/>
     <path class="fil4" d="M2834.06 4374.49c-680.22,-721.18 -1295.84,-32.03 -1409.56,821.67 -264.48,1985.6 2376.5,203.52 1409.56,-821.67zm-1063.14 2571.26c-950.96,1502.03 -1369.78,7240.46 836.72,7240.46 3822.85,0 2882.44,-4452.81 1393.13,-7034.04 -663.1,-1149.32 -1582.87,-1228.31 -2229.85,-206.42z"/>
     <path class="fil5" d="M4827.41 3921.13c-440.08,-672.48 -414.93,-1481.58 509.93,-1504.43 1658.47,-41.02 462.75,2990.71 -509.93,1504.43zm1417.93 1608.45c987.05,2044.88 2705.53,8845.31 178.11,8656.64 -4237.23,0 -3372.61,-7020.87 -2131.16,-9131.18 394.97,-671.44 1579.04,-300.4 1953.05,474.54z"/>
    </g>
   </g>
  </g>
 </g>
</svg>
