<?xml version="1.0" encoding="UTF-8"?>
<!DOCTYPE svg PUBLIC "-//W3C//DTD SVG 1.1//EN" "http://www.w3.org/Graphics/SVG/1.1/DTD/svg11.dtd">
<!-- Creator: CorelDRAW 2020 (64-Bit) -->
<svg xmlns="http://www.w3.org/2000/svg" xml:space="preserve" width="273.881mm" height="166.52mm" version="1.1" style="shape-rendering:geometricPrecision; text-rendering:geometricPrecision; image-rendering:optimizeQuality; fill-rule:evenodd; clip-rule:evenodd"
viewBox="0 0 27388.1 16651.97"
 xmlns:xlink="http://www.w3.org/1999/xlink"
 xmlns:xodm="http://www.corel.com/coreldraw/odm/2003">
 <defs>
  <style type="text/css">
   <![CDATA[
    .fil0 {fill:none}
    .fil5 {fill:#F1F1F1}
    .fil4 {fill:#F04647;fill-opacity:0.800000}
    .fil3 {fill:#55B16E}
    .fil2 {fill:#FFBC30}
    .fil1 {fill:white}
   ]]>
  </style>
 </defs>
 <g id="Layer_x0020_1">
  <metadata id="CorelCorpID_0Corel-Layer"/>
  <rect class="fil0" x="1193.52" y="733.12" width="24999.98" height="15199.99"/>
  <g id="_1852175146384">
   <path class="fil1" d="M6021.15 4654.42c-440.1,-672.51 -414.95,-1481.64 509.95,-1504.49 1658.54,-41.02 462.77,2990.84 -509.95,1504.49zm1417.99 1608.52c987.09,2044.97 2705.65,8845.69 178.12,8657.01 -4237.41,0 -3372.75,-7021.17 -2131.25,-9131.57 394.99,-671.47 1579.11,-300.41 1953.13,474.56z"/>
   <path class="fil2" d="M10432.18 1743.39c-1153.85,-155.89 -1597.2,651.54 -1509.6,1250.98 90.76,621.01 819.53,1163.23 1452.72,364.52 535.07,-674.95 842.96,-1509.29 56.88,-1615.5zm-409.18 13176.55c1910.57,0 2269.18,-1483.18 2149.96,-3781.97 -41.83,-806.65 -307.32,-4475.69 -772.23,-6217.24 -108.87,-407.83 -209.36,-959.17 -709.39,-953.39 -485.45,5.67 -1040.92,457.87 -1304.65,1073.08 -1097.12,2559.19 -4045.15,9879.52 636.31,9879.52z"/>
   <path class="fil3" d="M4027.71 5107.8c-680.25,-721.21 -1295.9,-32.03 -1409.62,821.71 -264.49,1985.68 2376.6,203.53 1409.62,-821.71zm-1063.19 2571.37c-951,1502.09 -1369.84,7240.77 836.76,7240.77 3823.01,0 2882.56,-4453 1393.19,-7034.34 -663.13,-1149.37 -1582.94,-1228.36 -2229.95,-206.43z"/>
   <path class="fil4" d="M6021.15 4654.42c-440.1,-672.51 -414.95,-1481.64 509.95,-1504.49 1658.54,-41.02 462.77,2990.84 -509.95,1504.49zm1417.99 1608.52c987.09,2044.97 2705.65,8845.69 178.12,8657.01 -4237.41,0 -3372.75,-7021.17 -2131.25,-9131.57 394.99,-671.47 1579.11,-300.41 1953.13,474.56z"/>
  </g>
  <path class="fil5" d="M15130.52 13717.92l0 -75.6c0,-48.9 31.72,-91.36 79.34,-103.62l117.33 -30.57c113.57,-27.32 197.47,-130.45 198.45,-247.43 0,-479.91 0,-959.81 0,-1439.72 7.56,-592.06 468.97,-1074.72 1074.72,-1074.72 258.88,0 409.52,68.28 595.04,220.73 337.12,283.48 155.98,865.66 -261.12,865.66 -220.14,0 -398.6,-222.28 -398.6,-398.6 0,-176.32 64.67,-249.89 164.16,-322.36 24.87,-19.36 40.88,-49.59 40.88,-83.56 0,-80.64 -69.51,-114.93 -140.36,-114.93 -192.9,0 -349.29,156.4 -349.29,349.3l0 907.02 551.14 0 0 200.34 -551.14 0 0 884.88 0 5.96c0.99,116.99 84.89,220.11 198.44,247.43l117.36 30.57c47.62,12.26 79.31,54.72 79.31,103.62l0 75.6 -1515.66 0zm1336.69 -5253.05c593.56,0 1074.73,481.18 1074.73,1074.72 0,593.56 -481.17,1074.72 -1074.73,1074.72 -593.54,0 -1074.72,-481.16 -1074.72,-1074.72 0,-593.54 481.18,-1074.72 1074.72,-1074.72zm349.3 1633.22c0,192.88 -156.39,349.29 -349.3,349.29 -192.9,0 -349.29,-156.41 -349.29,-349.29 0,-372.33 0,-744.66 0,-1116.99 0,-192.89 156.39,-349.29 349.29,-349.29 192.92,0 349.3,156.4 349.3,349.29 0,372.33 0,744.66 0,1116.99zm-2548.26 1470.38c593.55,0 1074.72,481.16 1074.72,1074.72 0,593.56 -481.17,1074.73 -1074.72,1074.73 -593.56,0 -1074.73,-481.17 -1074.73,-1074.73 0,-593.56 481.17,-1074.72 1074.73,-1074.72zm349.3 1633.2c0,192.91 -156.4,349.29 -349.3,349.29 -192.91,0 -349.3,-156.38 -349.3,-349.29 0,-372.33 0,-744.65 0,-1116.97 0,-192.91 156.38,-349.29 349.3,-349.29 192.91,0 349.3,156.38 349.3,349.29 0,372.32 0,744.64 0,1116.97zm-213.88 -5559.01l725.43 0 395.1 0 0 75.6c0,48.88 -31.7,91.36 -79.3,103.63l-117.35 30.56c-113.57,27.31 -197.47,130.45 -198.45,247.44l0 1.76c0,1.38 -0.01,2.78 0.02,4.18l-0.02 0 0 1433.76c-7.56,592.07 -468.98,1074.72 -1074.72,1074.72 -258.87,0 -496.34,-91.54 -681.87,-243.98 -109.42,-92.02 -178.99,-229.9 -178.99,-384.05 0,-153.02 68.53,-290.02 176.56,-382 70.26,-61.99 162.51,-99.61 263.55,-99.61 220.14,0 398.61,178.46 398.61,398.6 0,132.49 -64.67,249.89 -164.16,322.36 -24.87,19.36 -40.89,49.59 -40.89,83.56 0,38.89 19.61,70.65 52.04,91.14 51.47,29.89 111.31,47.05 175.15,47.05 192.89,0 349.29,-156.41 349.29,-349.29l0 -1992.26 -0.03 0 0.03 -4.18 0 -1.76c-0.98,-117 -84.88,-220.13 -198.45,-247.44l-117.35 -30.56c-47.6,-12.27 -79.32,-54.75 -79.32,-103.63l0 -75.6 395.12 0zm9715.12 3926.11c593.56,0 1074.73,481.17 1074.73,1074.71 0,40.07 -2.26,79.61 -6.54,118.52 -472.48,0 -944.99,0 -1417.49,0 -26.66,668.7 721.31,949.11 1014.17,550.91 16.21,-22.03 51.08,-46.9 -12.44,-104.96 -29.89,-34.14 -48.04,-78.86 -48.04,-127.81 0,-107.19 86.91,-194.08 194.1,-194.08 131.4,0 191.32,90.08 189.88,210.21 -60.37,342.29 -407.08,652.3 -988.37,621.93 -593.5,-7.14 -1074.72,-481.17 -1074.72,-1074.72 0,-593.54 481.18,-1074.71 1074.72,-1074.71zm-349.3 980.52l698.6 0 0 -464.29c0,-192.92 -156.38,-349.3 -349.3,-349.3 -192.91,0 -349.3,156.38 -349.3,349.3l0 464.29zm-2089.05 1168.9c-300.11,0 -557.06,-105.03 -770.88,-316.98 -215.68,-210.07 -322.61,-461.4 -322.61,-755.86 0,-288.86 106.93,-540.19 318.86,-755.89 210.64,-212.47 467.55,-319.37 768.94,-320.69 291.69,0 562.43,117.86 767.19,324.44 211.81,213.67 318.7,462.31 320.68,744.12l0.05 1208.21c-4.58,359.74 -181.58,679.09 -455.66,874.32 -400.11,285 -1157.01,272 -1541.05,-43.58 -109.44,-92.02 -179.01,-229.9 -179.01,-384.05 0,-153.01 68.53,-290.01 176.56,-382.01 70.26,-61.99 162.51,-99.6 263.56,-99.6 220.15,0 398.61,178.47 398.61,398.61 0,132.49 -64.67,249.88 -164.16,322.35 -24.88,19.37 -40.88,49.6 -40.88,83.56 0,38.9 19.61,70.64 52.01,91.16 51.48,29.9 111.33,47.03 175.16,47.03 720.89,0 576.3,-592.65 576.3,-1090.82 -107.98,37.06 -222.39,55.68 -343.67,55.68zm-354.92 -1633.22l0 1116.98c0,192.9 156.38,349.3 349.29,349.3 192.91,0 349.3,-156.4 349.3,-349.3l0 -564.62 0 -552.36c0,-192.91 -156.39,-349.3 -349.3,-349.3 -192.91,0 -349.29,156.39 -349.29,349.3zm-1724.96 1137.86l-194.43 -473.22 -996.13 0c-84.07,230.22 -143.23,392.22 -184.48,505.13l0 0.01 -169.15 463.17 -606.31 0 0 -75.6c0,-48.9 31.7,-91.36 79.31,-103.62l117.35 -30.57c90.7,-21.82 213.46,-91.99 261.05,-178.98l1.13 -1.99c35.24,-66.82 163.05,-367.13 382.85,-901l422.8 -1025.93c158.93,-114.87 292.56,-279.91 404.31,-480.91 6.72,-12.09 70.78,-135.4 71.12,-135.52l187.63 0 850.04 2111.21c94.77,236.91 160.24,388.83 196.45,455.43 45.37,76.99 139.34,137.68 222.52,157.69l117.35 30.57c47.61,12.26 79.31,54.72 79.31,103.62l0 75.6 -1039.3 0 -203.42 -495.09zm-699.44 -1720.46l-411.82 1046.91 833.35 0 -421.53 -1046.91zm-964.33 -102.3c-297.87,-75.39 -591.97,-272.83 -591.97,-593.09 0,-242.91 186.25,-481.61 440.12,-481.61 220.13,0 398.6,222.29 398.6,398.62 0,176.31 -64.68,249.88 -164.17,322.35 -24.88,19.37 -40.88,49.59 -40.88,83.55 0,38.9 19.6,70.65 52.02,91.16 51.47,29.9 111.32,47.03 175.14,47.03 273.71,0 462.61,-362.1 366.73,-576.31l-818.75 -1829.43c-44.2,-98.87 -49.65,-158.95 -169.19,-187.67l-117.34 -30.58c-47.61,-12.27 -79.31,-54.72 -79.31,-103.63l0 -75.59 982.54 0 314.37 702.28 332.34 742.41 329.17 -735.37 317.51 -709.32 585.15 0 0 75.59c0,48.91 -31.69,91.36 -79.31,103.63l-117.34 30.58c-99.47,23.91 -110.42,56.52 -147.13,138.54l-695.44 1553.83c-75.03,167.63 -145.44,330.63 -226.66,476.73 -248.76,447.44 -579.54,656.28 -1046.2,556.3z"/>
  <rect class="fil0" x="-0.01" y="-0" width="27388.1" height="16651.97"/>
 </g>
</svg>
