<svg width="24" height="24" viewBox="0 0 24 24" fill="none" xmlns="http://www.w3.org/2000/svg">
<mask id="mask0" mask-type="alpha" maskUnits="userSpaceOnUse" x="4" y="4" width="17" height="17">
<path fill-rule="evenodd" clip-rule="evenodd" d="M13.9361 4C13.3525 4 12.7928 4.23183 12.3801 4.64449C11.9675 5.05715 11.7357 5.61684 11.7357 6.20043V7.20219C11.7357 8.28553 11.3053 9.3245 10.5393 10.0905C9.95239 10.6774 9.20533 11.0673 8.40085 11.2175V10.5517C8.40085 10.1375 8.06506 9.80171 7.65085 9.80171H4.75C4.33579 9.80171 4 10.1375 4 10.5517V19.2543C4 19.6685 4.33579 20.0043 4.75 20.0043H7.65085C8.06506 20.0043 8.40085 19.6685 8.40085 19.2543V19.144C8.41702 19.1483 8.43316 19.1528 8.44927 19.1574L8.44929 19.1574L10.7917 19.8265L10.9502 18.3117L10.9503 18.3118L10.7919 19.8265C11.2041 19.9443 11.6306 20.0041 12.0593 20.0043H12.0596H15.2086C16.3534 20.0043 17.4573 19.5791 18.3063 18.8111C19.1553 18.0432 19.6888 16.9873 19.8033 15.8482C19.8043 15.8379 19.8051 15.8276 19.8057 15.8173L19.9991 12.5296L19.9992 12.5296L19.9995 12.5238C20.0425 11.6792 19.791 10.8459 19.2879 10.1661C18.7848 9.48632 18.0613 9.00229 17.241 8.79667C17.2337 8.79482 17.2263 8.79308 17.2188 8.79145L16.2947 8.58949C16.2504 8.57701 16.2111 8.55071 16.1826 8.51431C16.1527 8.47614 16.1365 8.42908 16.1365 8.38062L16.1365 8.38058V6.20043C16.1365 5.61684 15.9047 5.05715 15.492 4.64449C15.0794 4.23183 14.5197 4 13.9361 4ZM11.7114 11.0364L12.3801 4.64449L11.7114 11.0365C11.6748 11.0752 11.6377 11.1135 11.5999 11.1512C10.731 12.0202 9.60514 12.5732 8.40092 12.7364V17.6087C8.5559 17.6363 8.70954 17.6717 8.86121 17.7151L8.86124 17.7151L10.9502 18.3117L11.7114 11.0365C11.7114 11.0365 11.7114 11.0365 11.7114 11.0364ZM11.7114 11.0364L10.9503 18.3118L11.2038 18.3842L11.204 18.3842C11.4822 18.4638 11.7702 18.5042 12.0596 18.5043H12.0598H15.2086C15.9815 18.5043 16.7269 18.2172 17.3001 17.6987C17.8697 17.1835 18.2289 16.4763 18.3093 15.7129L18.5015 12.4446C18.5262 11.948 18.378 11.4582 18.0822 11.0584C17.7879 10.6608 17.3656 10.3768 16.8866 10.2542L15.9606 10.0519L15.9402 10.0471C15.568 9.95483 15.2374 9.74058 15.0011 9.43853C14.7649 9.13649 14.6365 8.76405 14.6365 8.38058V8.38053V6.20043C14.6365 6.01466 14.5627 5.8365 14.4314 5.70515C14.3 5.57379 14.1218 5.5 13.9361 5.5C13.7503 5.5 13.5722 5.57379 13.4408 5.70515C13.3095 5.8365 13.2357 6.01466 13.2357 6.20043V7.20219C13.2357 8.62994 12.6889 10.0013 11.7114 11.0364ZM5.5 18.5043V11.3017H6.90085V18.5043H5.5Z" fill="#111111"/>
</mask>
<g mask="url(#mask0)">
<rect width="24" height="24" fill="#161C2D" fill-opacity="0.68"/>
</g>
</svg>
