<svg width="248" height="234" viewBox="0 0 248 234" fill="none" xmlns="http://www.w3.org/2000/svg">
    <g clip-path="url(#clip0)">
    <path d="M148.263 18.2919L23.2256 45.0635L60.2939 217.458L185.331 190.686L148.263 18.2919Z" fill="#E0E0E0"/>
    <g opacity="0.5">
    <path opacity="0.5" d="M146.777 21.6591L25.9658 47.5259L61.7812 214.093L182.593 188.226L146.777 21.6591Z" fill="url(#paint0_linear)"/>
    </g>
    <path d="M145.502 23.2146L27.7666 48.4229L62.7907 211.31L180.526 186.102L145.502 23.2146Z" fill="#FAFAFA"/>
    <path d="M114.475 22.4713L56.0674 34.9768L59.1031 49.0951L117.51 36.5896L114.475 22.4713Z" fill="url(#paint1_linear)"/>
    <path d="M82.3027 14.9346C77.7934 15.9012 74.9403 20.4185 75.9323 25.0234C76.9243 29.6283 81.381 32.5834 85.8816 31.6168C90.3822 30.6503 93.244 26.133 92.252 21.5281C91.26 16.9232 86.8121 13.9681 82.3027 14.9346ZM85.1324 28.104C84.1794 28.3308 83.1803 28.2693 82.2624 27.9274C81.3445 27.5854 80.5494 26.9785 79.9785 26.184C79.4075 25.3895 79.0866 24.4433 79.0566 23.4661C79.0265 22.4888 79.2888 21.5248 79.8098 20.6969C80.3309 19.8689 81.0872 19.2145 81.9824 18.8171C82.8775 18.4196 83.871 18.2972 84.8362 18.4652C85.8014 18.6333 86.6945 19.0844 87.4018 19.7609C88.1092 20.4374 88.5986 21.3088 88.8078 22.2639C88.9524 22.8883 88.9719 23.535 88.8652 24.1669C88.7585 24.7988 88.5278 25.4034 88.1863 25.9461C87.8448 26.4888 87.3992 26.9588 86.8751 27.3291C86.351 27.6994 85.7588 27.9628 85.1324 28.104Z" fill="url(#paint2_linear)"/>
    <path d="M113.729 21.9977L56.5518 34.2397L59.4537 47.7356L116.631 35.4936L113.729 21.9977Z" fill="#1A73E8"/>
    <path d="M82.3036 14.9345C80.7232 15.273 79.2788 16.0716 78.1531 17.2292C77.0275 18.3868 76.2711 19.8515 75.9797 21.4381C75.6882 23.0246 75.8747 24.6618 76.5157 26.1426C77.1567 27.6233 78.2233 28.8812 79.5806 29.7571C80.938 30.633 82.5251 31.0876 84.1414 31.0634C85.7576 31.0392 87.3304 30.5373 88.6608 29.6211C89.9912 28.705 91.0195 27.4158 91.6156 25.9165C92.2118 24.4172 92.349 22.7752 92.01 21.198C91.7849 20.1508 91.3552 19.158 90.7456 18.2764C90.1359 17.3949 89.3582 16.6418 88.4569 16.0601C87.5555 15.4785 86.5482 15.0797 85.4924 14.8866C84.4366 14.6935 83.3531 14.7098 82.3036 14.9345ZM85.0075 27.5199C84.0952 27.7153 83.1454 27.6362 82.2782 27.2929C81.411 26.9495 80.6652 26.3573 80.1353 25.591C79.6054 24.8247 79.3152 23.9188 79.3012 22.9879C79.2873 22.057 79.5503 21.1429 80.057 20.3611C80.5637 19.5794 81.2914 18.9651 82.148 18.5961C83.0045 18.227 83.9515 18.1197 84.8692 18.2878C85.7869 18.4558 86.634 18.8916 87.3035 19.5401C87.9729 20.1886 88.4346 21.0206 88.6302 21.931C88.8924 23.1515 88.658 24.4259 87.9786 25.474C87.2993 26.5221 86.2305 27.2581 85.0075 27.5199Z" fill="#1A73E8"/>
    <path d="M86.6097 63.4008L75.5182 80.5092L92.6762 91.5687L88.979 97.2715L71.821 86.212L60.7294 103.32L55.0101 99.6339L66.1016 82.5255L48.9436 71.4661L52.6408 65.7632L69.7988 76.8227L80.8903 59.7143L86.6097 63.4008Z" fill="#1A73E8"/>
    <path d="M206.348 39.6382H78.4648V215.956H206.348V39.6382Z" fill="#E0E0E0"/>
    <g opacity="0.5">
    <path opacity="0.5" d="M204.188 42.6196H80.627V212.978H204.188V42.6196Z" fill="url(#paint3_linear)"/>
    </g>
    <path d="M202.613 43.8752H82.1973V210.47H202.613V43.8752Z" fill="#FAFAFA"/>
    <path d="M99.4576 169.781C102.264 167.078 104.502 163.84 106.04 160.258C107.578 156.675 108.386 152.82 108.415 148.92C108.444 145.02 107.695 141.154 106.211 137.549C104.726 133.943 102.537 130.672 99.7722 127.927C88.6354 116.859 70.5017 116.671 59.1291 127.497C54.1329 132.253 50.9777 138.628 50.2221 145.491C49.4665 152.355 51.1592 159.265 55.0005 164.998L33.0528 186.136C32.7813 186.397 32.6246 186.757 32.6172 187.134C32.6098 187.512 32.7524 187.876 33.0135 188.149L38.0689 193.416C38.3301 193.688 38.6885 193.845 39.0652 193.853C39.442 193.86 39.8062 193.717 40.0779 193.456L62.0237 172.316C67.5656 176.368 74.3554 178.336 81.2009 177.872C88.0465 177.409 94.5103 174.544 99.4576 169.781ZM64.1882 163.197C61.3266 160.214 59.412 156.449 58.6863 152.376C57.9607 148.304 58.4566 144.107 60.1115 140.317C61.7663 136.527 64.5057 133.314 67.9833 131.083C71.4608 128.853 75.5203 127.706 79.6485 127.787C83.7767 127.869 87.7881 129.175 91.1754 131.54C94.5628 133.906 97.174 137.224 98.6788 141.077C100.184 144.929 100.515 149.142 99.6298 153.183C98.7449 157.224 96.684 160.911 93.7076 163.778C91.7313 165.682 89.4 167.177 86.8469 168.178C84.2938 169.18 81.5688 169.667 78.8277 169.613C76.0865 169.559 73.3828 168.965 70.871 167.864C68.3591 166.763 66.0883 165.177 64.1882 163.197Z" fill="#1A73E8"/>
    <g clip-path="url(#clip1)">
    <path d="M79.4085 132.449C76.1381 132.449 72.9411 133.416 70.2219 135.227C67.5027 137.039 65.3833 139.614 64.1317 142.627C62.8802 145.64 62.5528 148.955 63.1908 152.153C63.8288 155.351 65.4036 158.289 67.7162 160.595C70.0287 162.901 72.975 164.471 76.1826 165.107C79.3901 165.743 82.7149 165.417 85.7363 164.169C88.7578 162.921 91.3403 160.808 93.1572 158.096C94.9741 155.385 95.9439 152.197 95.9439 148.936C95.9392 144.565 94.1955 140.374 91.0956 137.283C87.9956 134.192 83.7925 132.453 79.4085 132.449V132.449ZM79.4085 158.554C78.9997 158.554 78.6001 158.433 78.2602 158.207C77.9203 157.98 77.6553 157.658 77.4989 157.282C77.3425 156.905 77.3015 156.491 77.3813 156.091C77.461 155.691 77.6579 155.324 77.9469 155.036C78.236 154.748 78.6043 154.551 79.0053 154.472C79.4062 154.392 79.8218 154.433 80.1995 154.589C80.5772 154.745 80.9 155.009 81.1271 155.348C81.3542 155.687 81.4754 156.086 81.4754 156.493C81.4754 157.04 81.2577 157.564 80.87 157.95C80.4824 158.337 79.9567 158.554 79.4085 158.554ZM81.6132 150.2C81.3674 150.307 81.1582 150.484 81.0113 150.707C80.8645 150.931 80.7863 151.193 80.7864 151.46C80.7864 151.825 80.6413 152.174 80.3828 152.432C80.1244 152.69 79.7739 152.834 79.4085 152.834C79.043 152.834 78.6925 152.69 78.4341 152.432C78.1757 152.174 78.0305 151.825 78.0305 151.46C78.0304 150.658 78.265 149.873 78.7056 149.202C79.1462 148.531 79.7736 148.003 80.5109 147.682C80.9663 147.484 81.3595 147.166 81.6489 146.764C81.9383 146.361 82.113 145.887 82.1547 145.394C82.1964 144.9 82.1034 144.404 81.8855 143.959C81.6677 143.514 81.3332 143.135 80.9174 142.864C80.5015 142.593 80.0199 142.438 79.5234 142.418C79.0269 142.397 78.5341 142.511 78.097 142.747C77.66 142.982 77.295 143.332 77.0407 143.757C76.7864 144.183 76.6523 144.669 76.6526 145.165C76.6526 145.529 76.5074 145.879 76.249 146.136C75.9906 146.394 75.6401 146.539 75.2746 146.539C74.9092 146.539 74.5587 146.394 74.3003 146.136C74.0419 145.879 73.8967 145.529 73.8967 145.165C73.8967 144.174 74.1653 143.202 74.6742 142.35C75.183 141.499 75.9132 140.801 76.7873 140.33C77.6615 139.859 78.6472 139.632 79.64 139.674C80.6329 139.715 81.596 140.024 82.4274 140.567C83.2588 141.109 83.9276 141.866 84.363 142.757C84.7984 143.647 84.9843 144.639 84.9008 145.626C84.8174 146.613 84.4678 147.56 83.8891 148.365C83.3103 149.171 82.524 149.805 81.6132 150.202V150.2Z" fill="#1A73E8"/>
    </g>
    <path d="M187.79 165.09L173.343 179.495L187.79 193.9L182.974 198.702L168.527 184.297L154.081 198.702L149.265 193.9L163.712 179.495L149.265 165.09L154.081 160.288L168.527 174.693L182.974 160.288L187.79 165.09Z" fill="#1A73E8"/>
    <path d="M172.432 36.6509H112.695V51.0905H172.432V36.6509Z" fill="url(#paint4_linear)"/>
    <path d="M142.563 22.5562C137.952 22.5562 134.212 26.3756 134.212 31.0885C134.212 35.8015 137.952 39.6209 142.563 39.6209C147.175 39.6209 150.915 35.8015 150.915 31.0885C150.915 26.3756 147.175 22.5562 142.563 22.5562ZM142.563 36.0117C141.583 36.0349 140.618 35.766 139.791 35.2394C138.965 34.7127 138.314 33.9522 137.923 33.0549C137.531 32.1576 137.417 31.1642 137.594 30.2017C137.771 29.2391 138.231 28.351 138.916 27.6507C139.601 26.9505 140.48 26.4698 141.44 26.2702C142.4 26.0706 143.398 26.161 144.306 26.53C145.215 26.8989 145.992 27.5296 146.54 28.3416C147.087 29.1535 147.38 30.1099 147.38 31.0885C147.389 32.3747 146.888 33.6123 145.985 34.5306C145.083 35.4488 143.852 35.973 142.563 35.9884V36.0117Z" fill="url(#paint5_linear)"/>
    <path d="M171.804 36.032H113.325V49.835H171.804V36.032Z" fill="#1A73E8"/>
    <path d="M142.564 22.5562C140.947 22.5562 139.367 23.0345 138.023 23.9306C136.679 24.8268 135.631 26.1005 135.013 27.5908C134.394 29.0811 134.232 30.7209 134.548 32.3029C134.863 33.885 135.641 35.3382 136.784 36.4788C137.927 37.6194 139.384 38.3961 140.969 38.7108C142.555 39.0255 144.198 38.864 145.691 38.2467C147.185 37.6294 148.461 36.5841 149.359 35.2429C150.257 33.9017 150.737 32.3249 150.737 30.7118C150.737 28.5488 149.876 26.4744 148.343 24.9449C146.81 23.4154 144.731 22.5562 142.564 22.5562ZM142.564 35.419C141.631 35.4178 140.72 35.141 139.946 34.6236C139.171 34.1062 138.567 33.3714 138.211 32.5118C137.854 31.6523 137.761 30.7066 137.943 29.7942C138.125 28.8819 138.573 28.0437 139.232 27.3855C139.891 26.7273 140.73 26.2786 141.644 26.0962C142.558 25.9137 143.506 26.0056 144.368 26.3602C145.23 26.7149 145.967 27.3164 146.486 28.0888C147.006 28.8612 147.284 29.7699 147.287 30.7002C147.286 31.3186 147.164 31.9308 146.926 32.5019C146.689 33.0731 146.341 33.5919 145.902 34.0288C145.463 34.4656 144.943 34.812 144.37 35.048C143.797 35.284 143.183 35.4051 142.564 35.4044V35.419Z" fill="#1A73E8"/>
    <g opacity="0.5">
    <path opacity="0.5" d="M8.56708 220.722H7.4668V226.95H8.56708V220.722Z" fill="#47E6B1"/>
    <path opacity="0.5" d="M11.1392 224.386V223.288H4.89747V224.386H11.1392Z" fill="#47E6B1"/>
    </g>
    <g opacity="0.5">
    <path opacity="0.5" d="M136.216 5.5H135.116V11.7285H136.216V5.5Z" fill="#47E6B1"/>
    <path opacity="0.5" d="M138.789 9.16164V8.06372H132.547V9.16164H138.789Z" fill="#47E6B1"/>
    </g>
    <path opacity="0.5" d="M228.636 231.091C228.332 230.959 228.088 230.721 227.95 230.421C227.811 230.121 227.787 229.781 227.884 229.465C227.899 229.416 227.909 229.366 227.913 229.316C227.922 229.171 227.884 229.027 227.804 228.906C227.725 228.785 227.609 228.692 227.472 228.642C227.336 228.592 227.187 228.587 227.048 228.628C226.909 228.669 226.786 228.753 226.699 228.869C226.668 228.91 226.643 228.954 226.623 229C226.491 229.303 226.252 229.547 225.951 229.685C225.65 229.824 225.309 229.847 224.993 229.751C224.944 229.735 224.894 229.725 224.844 229.722C224.699 229.713 224.555 229.751 224.433 229.83C224.312 229.909 224.219 230.026 224.169 230.162C224.118 230.297 224.113 230.446 224.154 230.585C224.195 230.724 224.28 230.846 224.396 230.933C224.437 230.964 224.481 230.989 224.528 231.009C224.831 231.141 225.075 231.38 225.214 231.68C225.353 231.979 225.376 232.32 225.28 232.636C225.264 232.684 225.254 232.734 225.25 232.785C225.242 232.929 225.28 233.073 225.359 233.194C225.439 233.315 225.555 233.408 225.691 233.458C225.827 233.508 225.976 233.513 226.116 233.472C226.255 233.432 226.377 233.347 226.465 233.231C226.495 233.191 226.521 233.147 226.541 233.1C226.673 232.797 226.912 232.553 227.213 232.415C227.513 232.277 227.854 232.253 228.171 232.35C228.219 232.365 228.269 232.375 228.32 232.379C228.465 232.387 228.609 232.349 228.73 232.27C228.852 232.191 228.945 232.075 228.995 231.939C229.045 231.803 229.05 231.654 229.009 231.515C228.968 231.376 228.884 231.254 228.768 231.167C228.727 231.137 228.683 231.111 228.636 231.091Z" fill="#4D8AF0"/>
    <path opacity="0.5" d="M42.9924 171.213C42.6889 171.081 42.4446 170.842 42.306 170.542C42.1673 170.242 42.1439 169.902 42.2404 169.586C42.2559 169.538 42.2658 169.488 42.2696 169.437C42.2784 169.293 42.2402 169.149 42.1608 169.028C42.0814 168.906 41.965 168.814 41.8287 168.764C41.6925 168.714 41.5437 168.709 41.4044 168.75C41.2651 168.79 41.1427 168.875 41.0553 168.99C41.0248 169.031 40.9993 169.075 40.9792 169.122C40.8471 169.425 40.608 169.669 40.3075 169.807C40.0069 169.945 39.6659 169.969 39.3493 169.872C39.3008 169.857 39.2507 169.847 39.2 169.843C39.0551 169.834 38.9112 169.873 38.7897 169.952C38.6681 170.031 38.5753 170.147 38.5251 170.283C38.4749 170.419 38.4699 170.568 38.5108 170.707C38.5517 170.846 38.6364 170.968 38.7523 171.055C38.7931 171.085 38.8373 171.111 38.884 171.131C39.1875 171.263 39.4318 171.501 39.5705 171.801C39.7091 172.101 39.7325 172.441 39.636 172.757C39.6205 172.806 39.6106 172.856 39.6068 172.906C39.598 173.051 39.6362 173.194 39.7156 173.316C39.795 173.437 39.9115 173.53 40.0477 173.58C40.1839 173.63 40.3327 173.635 40.472 173.594C40.6113 173.553 40.7337 173.469 40.8212 173.353C40.8516 173.312 40.8771 173.268 40.8972 173.222C41.0293 172.919 41.2684 172.675 41.569 172.537C41.8695 172.398 42.2105 172.375 42.5272 172.471C42.5756 172.487 42.6257 172.497 42.6764 172.5C42.8213 172.509 42.9652 172.471 43.0868 172.392C43.2083 172.313 43.3011 172.196 43.3513 172.06C43.4015 171.924 43.4065 171.776 43.3656 171.637C43.3247 171.498 43.24 171.376 43.1241 171.289C43.0834 171.258 43.0392 171.233 42.9924 171.213Z" fill="#FDD835"/>
    <path opacity="0.5" d="M197.618 25.4089C197.315 25.2771 197.071 25.0385 196.932 24.7386C196.793 24.4387 196.77 24.0984 196.866 23.7825C196.882 23.7341 196.892 23.6842 196.896 23.6336C196.904 23.4889 196.866 23.3454 196.787 23.2241C196.707 23.1028 196.591 23.0102 196.455 22.9601C196.318 22.91 196.17 22.905 196.03 22.9458C195.891 22.9866 195.769 23.0711 195.681 23.1868C195.651 23.2275 195.625 23.2716 195.605 23.3182C195.473 23.621 195.234 23.8648 194.933 24.0032C194.633 24.1416 194.292 24.1649 193.975 24.0686C193.927 24.0531 193.877 24.0433 193.826 24.0394C193.681 24.0307 193.537 24.0688 193.416 24.1481C193.294 24.2273 193.201 24.3435 193.151 24.4794C193.101 24.6154 193.096 24.7638 193.137 24.9028C193.178 25.0418 193.262 25.164 193.378 25.2513C193.419 25.2816 193.463 25.3071 193.51 25.3272C193.813 25.459 194.058 25.6976 194.196 25.9975C194.335 26.2974 194.358 26.6377 194.262 26.9536C194.246 27.002 194.237 27.052 194.233 27.1026C194.224 27.2472 194.262 27.3908 194.342 27.5121C194.421 27.6333 194.537 27.7259 194.674 27.776C194.81 27.8261 194.959 27.8312 195.098 27.7903C195.237 27.7495 195.36 27.665 195.447 27.5493C195.478 27.5087 195.503 27.4646 195.523 27.4179C195.655 27.1151 195.894 26.8713 196.195 26.7329C196.495 26.5945 196.837 26.5713 197.153 26.6675C197.202 26.683 197.252 26.6928 197.302 26.6967C197.447 26.7054 197.591 26.6673 197.713 26.5881C197.834 26.5088 197.927 26.3926 197.977 26.2567C198.027 26.1208 198.033 25.9723 197.992 25.8333C197.951 25.6943 197.866 25.5721 197.75 25.4849C197.709 25.4545 197.665 25.429 197.618 25.4089Z" fill="#FDD835"/>
    <path opacity="0.5" d="M240.797 99.5255C242.014 99.5255 243.001 98.5411 243.001 97.3267C243.001 96.1124 242.014 95.1279 240.797 95.1279C239.58 95.1279 238.594 96.1124 238.594 97.3267C238.594 98.5411 239.58 99.5255 240.797 99.5255Z" fill="#F55F44"/>
    <path opacity="0.5" d="M70.517 225.724C71.7339 225.724 72.7204 224.739 72.7204 223.525C72.7204 222.311 71.7339 221.326 70.517 221.326C69.3 221.326 68.3135 222.311 68.3135 223.525C68.3135 224.739 69.3 225.724 70.517 225.724Z" fill="#F55F44"/>
    <path opacity="0.5" d="M218.168 147.052C219.385 147.052 220.372 146.068 220.372 144.853C220.372 143.639 219.385 142.655 218.168 142.655C216.951 142.655 215.965 143.639 215.965 144.853C215.965 146.068 216.951 147.052 218.168 147.052Z" fill="#F55F44"/>
    <path opacity="0.5" d="M28.4974 35.8334C29.7144 35.8334 30.7009 34.8489 30.7009 33.6346C30.7009 32.4202 29.7144 31.4358 28.4974 31.4358C27.2805 31.4358 26.2939 32.4202 26.2939 33.6346C26.2939 34.8489 27.2805 35.8334 28.4974 35.8334Z" fill="#4D8AF0"/>
    <path opacity="0.5" d="M5.2025 95.8141C6.41944 95.8141 7.40597 94.8296 7.40597 93.6153C7.40597 92.4009 6.41944 91.4165 5.2025 91.4165C3.98555 91.4165 2.99902 92.4009 2.99902 93.6153C2.99902 94.8296 3.98555 95.8141 5.2025 95.8141Z" fill="#47E6B1"/>
    </g>
    <defs>
    <linearGradient id="paint0_linear" x1="122.186" y1="201.16" x2="86.5155" y2="34.5617" gradientUnits="userSpaceOnUse">
    <stop stop-color="#666666"/>
    <stop offset="0.54" stop-color="#808080" stop-opacity="0.12"/>
    <stop offset="1" stop-color="#808080" stop-opacity="0.1"/>
    </linearGradient>
    <linearGradient id="paint1_linear" x1="32135.2" y1="-4169.84" x2="31985.7" y2="-4868.12" gradientUnits="userSpaceOnUse">
    <stop stop-color="#808080" stop-opacity="0.25"/>
    <stop offset="0.54" stop-color="#808080" stop-opacity="0.12"/>
    <stop offset="1" stop-color="#808080" stop-opacity="0.1"/>
    </linearGradient>
    <linearGradient id="paint2_linear" x1="9385.69" y1="481.75" x2="9177.11" y2="-492.41" gradientUnits="userSpaceOnUse">
    <stop stop-color="#808080" stop-opacity="0.25"/>
    <stop offset="0.54" stop-color="#808080" stop-opacity="0.12"/>
    <stop offset="1" stop-color="#808080" stop-opacity="0.1"/>
    </linearGradient>
    <linearGradient id="paint3_linear" x1="142.406" y1="212.978" x2="142.406" y2="42.6196" gradientUnits="userSpaceOnUse">
    <stop stop-color="#666666"/>
    <stop offset="0.54" stop-color="#808080" stop-opacity="0.12"/>
    <stop offset="1" stop-color="#808080" stop-opacity="0.1"/>
    </linearGradient>
    <linearGradient id="paint4_linear" x1="28603.5" y1="2291.11" x2="28603.5" y2="1577.07" gradientUnits="userSpaceOnUse">
    <stop stop-color="#808080" stop-opacity="0.25"/>
    <stop offset="0.54" stop-color="#808080" stop-opacity="0.12"/>
    <stop offset="1" stop-color="#808080" stop-opacity="0.1"/>
    </linearGradient>
    <linearGradient id="paint5_linear" x1="11272.8" y1="3032.61" x2="11272.8" y2="2035.34" gradientUnits="userSpaceOnUse">
    <stop stop-color="#808080" stop-opacity="0.25"/>
    <stop offset="0.54" stop-color="#808080" stop-opacity="0.12"/>
    <stop offset="1" stop-color="#808080" stop-opacity="0.1"/>
    </linearGradient>
    <clipPath id="clip0">
    <rect width="248" height="234" fill="white"/>
    </clipPath>
    <clipPath id="clip1">
    <rect width="33.0709" height="32.9752" fill="white" transform="translate(62.873 132.449)"/>
    </clipPath>
    </defs>
</svg>