<svg width="24" height="24" viewBox="0 0 24 24" fill="none" xmlns="http://www.w3.org/2000/svg">
<mask id="mask0" mask-type="alpha" maskUnits="userSpaceOnUse" x="5" y="3" width="15" height="18">
<path d="M14.3198 7.73416C15.325 7.73416 16.1398 6.89824 16.1398 5.86708C16.1398 4.83592 15.325 4 14.3198 4C13.3147 4 12.4998 4.83592 12.4998 5.86708C12.4998 6.89824 13.3147 7.73416 14.3198 7.73416Z" stroke="#111111" stroke-width="1.5" stroke-linecap="round" stroke-linejoin="round"/>
<path d="M17.96 9.86797H16.1109C15.7383 9.86819 15.3686 9.79977 15.0196 9.66597L12.9625 8.87788C11.9114 8.47117 10.784 8.31464 9.66532 8.42011C8.54666 8.52558 7.46596 8.89029 6.50475 9.48673C6.27119 9.6338 6.10367 9.8695 6.03858 10.1426C5.97349 10.4157 6.0161 10.7041 6.15715 10.9451C6.29819 11.1862 6.52628 11.3603 6.79183 11.4298C7.05737 11.4993 7.33891 11.4584 7.57525 11.3161C8.69881 10.6236 10.0308 10.3777 11.3193 10.6248L9.00768 15.2025H7.04C6.76417 15.2025 6.49965 15.3149 6.30461 15.515C6.10957 15.7151 6 15.9864 6 16.2694C6 16.5523 6.10957 16.8237 6.30461 17.0238C6.49965 17.2239 6.76417 17.3363 7.04 17.3363H9.64C9.83062 17.3363 10.0176 17.2826 10.1804 17.181C10.3433 17.0794 10.4758 16.9338 10.5635 16.7602L11.3095 15.2814L13.47 16.428L13.809 19.0753C13.8426 19.3313 13.9655 19.566 14.155 19.7361C14.3444 19.9061 14.5876 19.9999 14.8393 20C14.8857 20.0002 14.932 19.9971 14.978 19.9907C15.2514 19.9539 15.4993 19.8072 15.6673 19.5828C15.8353 19.3585 15.9096 19.0749 15.8738 18.7944L15.5333 16.1527C15.4899 15.8107 15.3663 15.4845 15.1731 15.2022C14.9799 14.9199 14.7229 14.6898 14.424 14.5318L12.265 13.3866L13.3223 11.2905L14.293 11.6618C14.8741 11.8862 15.4899 12.0013 16.1109 12.0018H17.96C18.2358 12.0018 18.5004 11.8894 18.6954 11.6893C18.8904 11.4892 19 11.2178 19 10.9349C19 10.6519 18.8904 10.3805 18.6954 10.1805C18.5004 9.98037 18.2358 9.86797 17.96 9.86797Z" stroke="#111111" stroke-width="1.5" stroke-linecap="round" stroke-linejoin="round"/>
</mask>
<g mask="url(#mask0)">
<rect width="24" height="24" fill="#161C2D" fill-opacity="0.68"/>
</g>
</svg>
