<svg width="24" height="24" viewBox="0 0 24 24" fill="none" xmlns="http://www.w3.org/2000/svg">
<mask id="mask0" mask-type="alpha" maskUnits="userSpaceOnUse" x="4" y="4" width="17" height="17">
<path fill-rule="evenodd" clip-rule="evenodd" d="M6.66674 16.7666L8.40813 15.9599C8.48812 15.9149 8.57653 15.887 8.66782 15.8778C8.75912 15.8686 8.85133 15.8783 8.93868 15.9064C9.02604 15.9345 9.10666 15.9803 9.17549 16.041C9.24433 16.1016 9.2999 16.1759 9.33873 16.259C9.37756 16.3421 9.39881 16.4324 9.40115 16.5241C9.4035 16.6159 9.38688 16.7071 9.35234 16.7921C9.31781 16.8771 9.26609 16.9541 9.20044 17.0182C9.13479 17.0823 9.05662 17.1322 8.97081 17.1647L5.49804 18.7762C5.37248 18.8337 5.23224 18.8512 5.09639 18.8263C4.96053 18.8014 4.83564 18.7352 4.73869 18.6368C4.64218 18.5381 4.57892 18.4118 4.55776 18.2754C4.5366 18.139 4.5586 17.9994 4.62068 17.8761L6.03806 15.0551C5.40684 14.5017 4.89915 13.8217 4.54802 13.0592C4.19689 12.2967 4.01017 11.4688 4 10.6293C4 6.9743 7.58877 4 12.0002 4C16.0123 4 19.4231 6.48225 19.9338 9.77259C19.9917 10.1432 20.0125 10.5186 19.9958 10.8934C19.9877 11.0702 19.9096 11.2366 19.7788 11.3558C19.6481 11.4751 19.4753 11.5376 19.2984 11.5294C19.1216 11.5213 18.9553 11.4433 18.836 11.3125C18.7167 11.1817 18.6543 11.0089 18.6624 10.832C18.6756 10.5463 18.6599 10.2599 18.6158 9.97728C18.2051 7.32967 15.3603 5.32947 12.0002 5.32947C8.32412 5.32947 5.33337 7.70704 5.33337 10.6293C5.35097 11.3602 5.53562 12.0773 5.87317 12.7258C6.21072 13.3742 6.69221 13.9368 7.28076 14.3704C7.39932 14.4657 7.48176 14.5986 7.51438 14.7472C7.547 14.8957 7.52784 15.051 7.4601 15.1871L6.66674 16.7666ZM15.6856 8.18284C15.7792 8.27577 15.8322 8.40193 15.8331 8.5338C15.8338 8.5998 15.8214 8.66528 15.7966 8.72644C15.7718 8.78761 15.7351 8.84325 15.6887 8.89014C15.6422 8.93702 15.5869 8.97422 15.526 8.99958C15.4651 9.02493 15.3997 9.03794 15.3337 9.03785H8.33351C8.2009 9.03785 8.07372 8.98517 7.97995 8.89139C7.88618 8.79761 7.8335 8.67042 7.8335 8.5378C7.8335 8.40518 7.88618 8.27799 7.97995 8.18421C8.07372 8.09043 8.2009 8.03775 8.33351 8.03775H15.3337C15.4656 8.03775 15.5921 8.0899 15.6856 8.18284ZM8.33351 11.0287C8.26785 11.0287 8.20283 11.0417 8.14216 11.0668C8.0815 11.0919 8.02638 11.1287 7.97995 11.1752C7.93352 11.2216 7.89669 11.2767 7.87156 11.3374C7.84643 11.3981 7.8335 11.4631 7.8335 11.5288C7.8335 11.5944 7.84643 11.6595 7.87156 11.7201C7.89669 11.7808 7.93352 11.8359 7.97995 11.8824C8.02638 11.9288 8.0815 11.9656 8.14216 11.9908C8.20283 12.0159 8.26785 12.0288 8.33351 12.0288H10.6669C10.7326 12.0288 10.7976 12.0159 10.8583 11.9908C10.9189 11.9656 10.974 11.9288 11.0205 11.8824C11.0669 11.8359 11.1037 11.7808 11.1289 11.7201C11.154 11.6595 11.1669 11.5944 11.1669 11.5288C11.1669 11.4631 11.154 11.3981 11.1289 11.3374C11.1037 11.2767 11.0669 11.2216 11.0205 11.1752C10.974 11.1287 10.9189 11.0919 10.8583 11.0668C10.7976 11.0417 10.7326 11.0287 10.6669 11.0287H8.33351ZM20.0007 14.9945C19.9929 15.8591 19.6701 16.6911 19.0927 17.3347L19.6387 19.1495C19.6754 19.274 19.675 19.4065 19.6375 19.5308C19.6 19.6551 19.5271 19.7657 19.4276 19.8491C19.3282 19.9325 19.2065 19.985 19.0776 20.0003C18.9488 20.0155 18.8182 19.9928 18.702 19.935L16.4753 18.8235C16.0816 18.9134 15.6791 18.9595 15.2753 18.9609C12.6672 18.9609 10.5498 17.1813 10.5498 14.9945C10.5498 12.8076 12.6705 11.0287 15.2759 11.0287C17.8813 11.0287 20.0007 12.8076 20.0007 14.9945ZM17.918 18.0561L17.704 17.3454V17.3434C17.6687 17.225 17.667 17.0992 17.699 16.98C17.731 16.8607 17.7956 16.7527 17.8853 16.668C18.124 16.458 18.3166 16.2009 18.4512 15.9129C18.5858 15.6249 18.6594 15.3122 18.6674 14.9945C18.6674 13.541 17.146 12.3602 15.2753 12.3602C13.4046 12.3602 11.8832 13.543 11.8832 14.9965C11.8832 16.7293 14.0486 18.1114 16.382 17.48C16.5401 17.4369 16.7086 17.4535 16.8553 17.5267L17.918 18.0561Z" fill="#111111"/>
</mask>
<g mask="url(#mask0)">
<rect width="24" height="24" fill="#1A73E8"/>
</g>
</svg>
