<?xml version="1.0" encoding="utf-8"?>
<!-- Generator: Adobe Illustrator 16.0.0, SVG Export Plug-In . SVG Version: 6.00 Build 0)  -->
<!DOCTYPE svg PUBLIC "-//W3C//DTD SVG 1.1//EN" "http://www.w3.org/Graphics/SVG/1.1/DTD/svg11.dtd">
<svg version="1.1" id="Layer_1" xmlns="http://www.w3.org/2000/svg" xmlns:xlink="http://www.w3.org/1999/xlink" x="0px" y="0px"
	 width="170px" height="54px" viewBox="0 0 170 54" enable-background="new 0 0 170 54" xml:space="preserve">
<g>
	<g>
		<path fill="#24994f" d="M32.374,14.294C29.943,6.984,23.234,2.243,12.439,0.194l-0.125-0.024
			c-0.092-0.019-0.177-0.032-0.251-0.047c-0.071-0.014-0.135-0.026-0.193-0.041h-0.003L11.862,0.08
			c-0.176-0.038-0.359-0.06-0.545-0.069c-0.018,0-0.038-0.002-0.055-0.004C11.215,0.005,11.171,0,11.124,0
			c-1.23,0-2.457,0.609-3.142,1.572C7.894,1.7,7.742,1.884,7.542,2.131C5.028,5.286-2.623,14.88,0.921,25.551
			c3.362,10.12,14.591,11.257,18.823,11.686c0.23,0.023,0.437,0.046,0.616,0.066l0.105,0.012c0.233,0.029,0.464,0.042,0.688,0.042
			c0.576,0,1.132-0.091,1.654-0.272c0.227-0.08,0.444-0.182,0.657-0.296c0.01-0.004,0.021-0.012,0.031-0.018
			c0.168-0.09,0.332-0.186,0.491-0.297c0.03-0.021,0.061-0.049,0.091-0.071c0.135-0.102,0.275-0.204,0.406-0.319
			c0.16-0.145,0.316-0.299,0.469-0.467c0.094-0.106,0.207-0.225,0.332-0.356l0.176-0.19C28.249,32.099,35.663,24.202,32.374,14.294z
			 M20.097,33.723c-3.606-0.364-13.182-1.335-15.825-9.286c-2.358-7.095,1.511-13.939,4.28-17.806
			c0.227,1.349,0.626,2.95,1.294,4.833c1.2,3.358,3.131,5.852,4.998,8.262c1.786,2.305,3.477,4.484,4.497,7.342
			c1.172,3.304,1.383,5.495,1.362,6.719C20.523,33.768,20.324,33.746,20.097,33.723z"/>
		<path fill="#24994f" d="M85.696,16.88c-1.732,0-3.314,0.608-4.504,1.717c-0.053-0.418-0.156-0.645-0.312-0.876
			c-0.342-0.491-0.92-0.77-1.586-0.77c-0.67,0-1.291,0.317-1.616,0.831c-0.271,0.449-0.335,0.798-0.335,1.781v13.064
			c0,0.876,0.058,1.217,0.28,1.662c0.306,0.593,0.917,0.933,1.671,0.933c0.753,0,1.362-0.34,1.671-0.936
			c0.22-0.442,0.279-0.783,0.279-1.66v-8.473c0-2.329,1.3-3.719,3.479-3.719c2.143,0,3.373,1.356,3.373,3.719v8.473
			c0,0.878,0.058,1.218,0.279,1.663c0.307,0.593,0.917,0.933,1.669,0.933c0.757,0,1.366-0.34,1.675-0.935
			c0.223-0.443,0.278-0.783,0.278-1.661v-8.995c0-2.297-0.563-3.869-1.827-5.101C89.051,17.451,87.506,16.88,85.696,16.88z"/>
		<path fill="#24994f" d="M98.017,9.771c-1.277,0-2.317,1.039-2.317,2.316c0,1.279,1.04,2.317,2.317,2.317s2.317-1.039,2.317-2.317
			C100.334,10.81,99.294,9.771,98.017,9.771z"/>
		<path fill="#24994f" d="M98.017,16.952c-0.756,0-1.364,0.338-1.671,0.931c-0.223,0.445-0.281,0.786-0.281,1.662v13.082
			c0,0.876,0.059,1.218,0.281,1.663c0.307,0.593,0.915,0.933,1.671,0.933c0.752,0,1.363-0.34,1.67-0.936
			c0.225-0.442,0.283-0.784,0.283-1.66V19.545c0-0.876-0.059-1.217-0.283-1.663C99.38,17.29,98.769,16.952,98.017,16.952z"/>
		<path fill="#24994f" d="M111.083,16.88c-2.746,0-4.449,1.165-5.397,2.141c-1.766,1.819-2.121,4.052-2.121,7.065
			c0,3.012,0.355,5.247,2.121,7.062c0.949,0.979,2.652,2.144,5.397,2.144c2.74,0,4.449-1.165,5.4-2.144
			c1.761-1.836,2.119-4.063,2.119-7.062c0-3-0.358-5.227-2.123-7.065C115.531,18.045,113.827,16.88,111.083,16.88z M108.636,21.391
			c0.624-0.643,1.427-0.956,2.447-0.956s1.822,0.313,2.45,0.956c1.025,1.042,1.165,2.872,1.165,4.695
			c0,1.832-0.14,3.669-1.165,4.696c-0.628,0.643-1.43,0.955-2.45,0.955s-1.823-0.313-2.45-0.957
			c-1.023-1.025-1.164-2.863-1.164-4.694C107.469,24.263,107.609,22.434,108.636,21.391z"/>
		<path fill="#24994f" d="M133.591,17.73c-0.88-0.596-1.836-0.85-3.195-0.85c-1.676,0-3.269,0.666-4.344,1.795
			c-0.043-0.441-0.132-0.693-0.314-0.955c-0.343-0.491-0.922-0.77-1.586-0.77c-0.672,0-1.288,0.317-1.613,0.831
			c-0.274,0.449-0.338,0.798-0.338,1.781v13.064c0,0.876,0.058,1.217,0.28,1.662c0.305,0.593,0.915,0.933,1.671,0.933
			s1.362-0.34,1.671-0.936c0.224-0.442,0.277-0.783,0.277-1.66v-8.42c0-2.221,1.41-3.771,3.426-3.771
			c0.63,0,1.227,0.164,1.825,0.498c0.604,0.346,1.043,0.493,1.466,0.493c0.494,0,1.009-0.207,1.342-0.538
			c0.358-0.359,0.571-0.888,0.571-1.414C134.729,18.812,134.347,18.225,133.591,17.73z"/>
		<path fill="#24994f" d="M138.94,9.771c-1.276,0-2.316,1.039-2.316,2.316c0,1.279,1.042,2.317,2.316,2.317s2.315-1.039,2.315-2.317
			C141.256,10.81,140.215,9.771,138.94,9.771z"/>
		<path fill="#24994f" d="M138.94,16.952c-0.754,0-1.364,0.338-1.673,0.931c-0.221,0.445-0.278,0.786-0.278,1.662v13.082
			c0,0.876,0.058,1.218,0.281,1.663c0.306,0.593,0.916,0.933,1.67,0.933c0.752,0,1.363-0.34,1.671-0.936
			c0.222-0.442,0.279-0.784,0.279-1.66V19.545c0-0.876-0.058-1.217-0.282-1.663C140.304,17.29,139.692,16.952,138.94,16.952z"/>
		<path fill="#24994f" d="M153.102,31.984c-0.355-0.195-0.803-0.247-1.368-0.266c-1.105-0.029-1.621-0.618-1.621-1.856v-9.706h1.738
			c0.665,0,0.966-0.034,1.322-0.231c0.461-0.262,0.715-0.725,0.715-1.302c0-0.579-0.254-1.041-0.719-1.304
			c-0.354-0.197-0.653-0.23-1.318-0.23h-1.738V14.5c0-0.876-0.058-1.217-0.28-1.665c-0.308-0.59-0.916-0.929-1.671-0.929
			c-0.756,0-1.361,0.339-1.67,0.931c-0.224,0.446-0.281,0.787-0.281,1.663v2.589h-0.642c-0.667,0-0.965,0.034-1.321,0.23
			c-0.46,0.263-0.714,0.725-0.714,1.304c0,0.578,0.254,1.041,0.714,1.302c0.354,0.197,0.654,0.231,1.321,0.231h0.642v9.861
			c0,2.448,1.305,5.063,4.96,5.063h0.35c0.701,0,1.22-0.099,1.578-0.297c0.512-0.279,0.807-0.787,0.807-1.393
			C153.904,32.774,153.609,32.263,153.102,31.984z"/>
		<path fill="#24994f" d="M169.938,18.134c-0.186-0.582-0.92-1.182-1.823-1.182c-1.181,0-1.555,0.824-1.885,1.826l-3.383,10.287
			l-3.311-10.287c-0.336-1.002-0.705-1.826-1.893-1.826c-0.9,0-1.631,0.601-1.822,1.182c-0.185,0.583-0.03,1.143,0.193,1.815
			l4.924,14.314l-0.833,2.535c-0.52,1.545-1.321,1.758-2.114,1.758c-0.61,0-0.936,0.092-1.288,0.366
			c-0.4,0.305-0.609,0.786-0.609,1.395c0,0.559,0.182,0.994,0.562,1.33c0.342,0.309,0.932,0.464,1.754,0.464
			c1.481,0,2.658-0.445,3.587-1.356c0.568-0.552,0.965-1.228,1.331-2.259l6.417-18.543
			C169.951,19.375,170.138,18.761,169.938,18.134z"/>
		<path fill="#24994f" d="M66.609,16.88c-4.794,0-7.658,3.442-7.658,9.206c0,7.608,4.419,9.205,8.126,9.205
			c1.924,0,3.551-0.401,4.706-1.159c1.231-0.789,1.857-1.557,1.857-2.288c0-0.869-0.798-1.69-1.64-1.69
			c-0.489,0-0.969,0.211-1.552,0.683c-0.881,0.703-2.017,1.074-3.283,1.074c-2.667,0-4.284-1.724-4.345-4.622h9.196
			c0.532,0,1.19,0,1.691-0.503c0.391-0.387,0.564-0.949,0.539-1.712C74.138,20.098,71.135,16.88,66.609,16.88z M63.254,22.314
			c0.604-1.35,1.826-2.125,3.355-2.125c1.504,0,2.714,0.774,3.317,2.125c0.318,0.698,0.396,1.218,0.46,2.152h-7.563
			C62.861,23.497,62.943,22.998,63.254,22.314z"/>
		<path fill="#24994f" d="M49.532,20.744l-2.958-0.453c-1.424-0.216-2.077-0.584-2.626-1.073c-0.56-0.47-0.845-1.197-0.845-2.161
			c0-2.297,1.613-3.668,4.313-3.668c1.731,0,2.853,0.312,4.29,1.191c0.557,0.342,1.186,0.565,1.606,0.565
			c0.515,0,0.945-0.201,1.284-0.601c0.312-0.368,0.477-0.805,0.477-1.262c0-0.797-0.559-1.506-1.609-2.053
			c-2.135-1.123-3.571-1.481-5.909-1.481c-5.141,0-8.458,2.908-8.458,7.412c0,2.092,0.633,3.734,1.884,4.879
			c1.176,1.087,2.69,1.737,4.774,2.045l2.941,0.418c1.213,0.171,2.016,0.48,2.606,1.004c0.62,0.529,0.912,1.303,0.912,2.44
			c0,2.353-1.757,3.651-4.937,3.651c-2.125,0-3.524-0.423-5.171-1.553c-0.685-0.474-1.162-0.658-1.701-0.658
			c-0.467,0-0.89,0.176-1.223,0.504c-0.352,0.354-0.573,0.876-0.573,1.359c0,1.057,0.621,1.617,1.845,2.345
			c2.005,1.205,3.963,1.695,6.752,1.695c5.521,0,9.086-2.924,9.086-7.449c0-2.187-0.699-3.941-2.078-5.211
			C53.093,21.621,51.783,21.089,49.532,20.744z"/>
	</g>
	<g>
		<path fill="#24994f" d="M39.104,50.265c-0.251-0.251-0.251-0.577-0.251-0.842v-6.899c0-0.42,0.013-0.565,0.123-0.784
			c0.134-0.251,0.423-0.425,0.776-0.425s0.643,0.174,0.778,0.425c0.109,0.219,0.122,0.365,0.122,0.784v6.397h3.117
			c0.379,0,0.526,0.014,0.701,0.104c0.225,0.116,0.378,0.379,0.378,0.693s-0.154,0.578-0.378,0.694
			c-0.174,0.089-0.322,0.103-0.701,0.103h-3.823C39.682,50.515,39.353,50.515,39.104,50.265z"/>
		<path fill="#24994f" d="M47.25,40.974c0.533,0,0.964,0.431,0.964,0.964s-0.431,0.964-0.964,0.964
			c-0.533,0-0.963-0.431-0.963-0.964S46.718,40.974,47.25,40.974z M47.977,50.169c-0.122,0.244-0.386,0.398-0.727,0.398
			s-0.604-0.154-0.725-0.398c-0.091-0.181-0.11-0.341-0.11-0.746v-4.318c0-0.404,0.019-0.564,0.11-0.745
			c0.121-0.243,0.385-0.397,0.725-0.397s0.604,0.154,0.727,0.397c0.09,0.181,0.109,0.341,0.109,0.745v4.318
			C48.085,49.828,48.066,49.989,47.977,50.169z"/>
		<path fill="#24994f" d="M49.728,45.066c-0.09-0.27-0.173-0.553-0.096-0.778c0.103-0.301,0.411-0.519,0.777-0.519
			c0.521,0,0.669,0.398,0.803,0.803l1.074,3.258l1.073-3.258c0.134-0.405,0.283-0.803,0.802-0.803c0.367,0,0.675,0.217,0.778,0.519
			c0.077,0.226-0.007,0.509-0.097,0.778l-1.567,4.608c-0.129,0.378-0.225,0.545-0.379,0.681c-0.167,0.146-0.353,0.212-0.61,0.212
			c-0.25,0-0.444-0.065-0.611-0.212c-0.155-0.136-0.25-0.303-0.38-0.681L49.728,45.066z"/>
		<path fill="#24994f" d="M57.67,47.688c0,0.868,0.508,1.49,1.478,1.49c0.417,0,0.829-0.115,1.157-0.359
			c0.264-0.187,0.423-0.251,0.623-0.251c0.322,0,0.674,0.314,0.674,0.7c0,0.315-0.269,0.604-0.655,0.86
			c-0.456,0.31-1.086,0.463-1.824,0.463c-1.588,0-3.098-0.719-3.098-3.424c0-2.185,1.177-3.426,2.911-3.426
			c1.805,0,2.853,1.299,2.911,2.987c0.006,0.258-0.025,0.547-0.226,0.746c-0.211,0.213-0.481,0.213-0.731,0.213H57.67z
			 M60.061,45.819c-0.18-0.399-0.559-0.688-1.125-0.688c-0.559,0-0.944,0.289-1.118,0.688c-0.108,0.244-0.142,0.436-0.147,0.726
			h2.538C60.196,46.255,60.17,46.063,60.061,45.819z"/>
		<path fill="#24994f" d="M68.297,47.688c0,0.868,0.507,1.49,1.477,1.49c0.418,0,0.83-0.115,1.157-0.359
			c0.264-0.187,0.424-0.251,0.623-0.251c0.322,0,0.675,0.314,0.675,0.7c0,0.315-0.27,0.604-0.656,0.86
			c-0.456,0.31-1.085,0.463-1.824,0.463c-1.587,0-3.097-0.719-3.097-3.424c0-2.185,1.176-3.426,2.911-3.426
			c1.805,0,2.853,1.299,2.911,2.987c0.007,0.258-0.025,0.547-0.226,0.746c-0.211,0.213-0.481,0.213-0.731,0.213H68.297z
			 M70.687,45.819c-0.18-0.399-0.559-0.688-1.125-0.688c-0.559,0-0.944,0.289-1.118,0.688c-0.108,0.244-0.142,0.436-0.147,0.726
			h2.537C70.821,46.255,70.796,46.063,70.687,45.819z"/>
		<path fill="#24994f" d="M73.636,45.066c-0.09-0.27-0.173-0.553-0.097-0.778c0.104-0.301,0.411-0.519,0.778-0.519
			c0.521,0,0.669,0.398,0.803,0.803l1.073,3.258l1.073-3.258c0.135-0.405,0.283-0.803,0.803-0.803c0.366,0,0.674,0.217,0.777,0.519
			c0.077,0.226-0.006,0.509-0.097,0.778l-1.567,4.608c-0.129,0.378-0.226,0.545-0.379,0.681c-0.167,0.146-0.354,0.212-0.611,0.212
			c-0.25,0-0.443-0.065-0.61-0.212c-0.154-0.136-0.25-0.303-0.379-0.681L73.636,45.066z"/>
		<path fill="#24994f" d="M81.58,47.688c0,0.868,0.508,1.49,1.478,1.49c0.417,0,0.829-0.115,1.156-0.359
			c0.264-0.187,0.424-0.251,0.623-0.251c0.322,0,0.674,0.314,0.674,0.7c0,0.315-0.269,0.604-0.655,0.86
			c-0.457,0.31-1.086,0.463-1.825,0.463c-1.587,0-3.097-0.719-3.097-3.424c0-2.185,1.176-3.426,2.911-3.426
			c1.805,0,2.852,1.299,2.91,2.987c0.007,0.258-0.025,0.547-0.225,0.746c-0.211,0.213-0.481,0.213-0.732,0.213H81.58z
			 M83.969,45.819c-0.18-0.399-0.558-0.688-1.125-0.688c-0.559,0-0.944,0.289-1.118,0.688c-0.108,0.244-0.142,0.436-0.147,0.726
			h2.539C84.105,46.255,84.078,46.063,83.969,45.819z"/>
		<path fill="#24994f" d="M90.678,43.742c0.521,0,0.855,0.111,1.157,0.309c0.25,0.168,0.424,0.412,0.424,0.701
			c0,0.245-0.103,0.463-0.251,0.609c-0.146,0.149-0.353,0.232-0.558,0.232c-0.168,0-0.348-0.058-0.573-0.174
			c-0.199-0.103-0.41-0.174-0.635-0.174c-0.56,0-1.112,0.386-1.112,1.232v2.944c0,0.405-0.02,0.565-0.109,0.746
			c-0.123,0.244-0.387,0.398-0.727,0.398s-0.604-0.154-0.725-0.398c-0.091-0.181-0.11-0.341-0.11-0.746v-4.517
			c0-0.432,0.02-0.561,0.123-0.752c0.121-0.231,0.403-0.385,0.719-0.385c0.226,0,0.404,0.07,0.533,0.192
			c0.136,0.122,0.213,0.263,0.251,0.506C89.406,44.084,90.017,43.742,90.678,43.742z"/>
		<path fill="#24994f" d="M94.072,52.675c-0.365-0.207-0.667-0.495-0.667-0.849c0-0.425,0.359-0.713,0.667-0.713
			c0.213,0,0.38,0.064,0.624,0.213c0.373,0.225,0.675,0.307,0.989,0.307c1.003,0,1.344-0.706,1.344-1.388v-0.681
			c-0.438,0.488-0.938,0.669-1.593,0.669c-0.656,0-1.222-0.22-1.594-0.592c-0.63-0.63-0.682-1.491-0.682-2.66
			s0.052-2.018,0.682-2.646c0.372-0.373,0.951-0.593,1.605-0.593c0.7,0,1.178,0.193,1.627,0.707
			c0.051-0.226,0.114-0.366,0.249-0.487c0.13-0.123,0.309-0.193,0.534-0.193c0.314,0,0.597,0.154,0.719,0.385
			c0.104,0.192,0.123,0.321,0.123,0.752v5.365c0,1.606-1.145,2.775-2.943,2.775C95.018,53.047,94.528,52.925,94.072,52.675z
			 M95.924,45.259c-0.99,0-1.093,0.842-1.093,1.723c0,0.88,0.103,1.734,1.093,1.734c0.988,0,1.104-0.854,1.104-1.734
			C97.028,46.101,96.912,45.259,95.924,45.259z"/>
		<path fill="#24994f" d="M103.84,43.742c0.521,0,0.855,0.111,1.157,0.309c0.25,0.168,0.424,0.412,0.424,0.701
			c0,0.245-0.103,0.463-0.251,0.609c-0.148,0.149-0.354,0.232-0.56,0.232c-0.166,0-0.347-0.058-0.571-0.174
			c-0.199-0.103-0.411-0.174-0.636-0.174c-0.56,0-1.111,0.386-1.111,1.232v2.944c0,0.405-0.02,0.565-0.11,0.746
			c-0.122,0.244-0.386,0.398-0.726,0.398c-0.341,0-0.604-0.154-0.726-0.398c-0.091-0.181-0.11-0.341-0.11-0.746v-4.517
			c0-0.432,0.02-0.561,0.122-0.752c0.123-0.231,0.405-0.385,0.72-0.385c0.226,0,0.405,0.07,0.533,0.192
			c0.135,0.122,0.212,0.263,0.251,0.506C102.568,44.084,103.178,43.742,103.84,43.742z"/>
		<path fill="#24994f" d="M107.825,47.688c0,0.868,0.508,1.49,1.479,1.49c0.417,0,0.828-0.115,1.156-0.359
			c0.263-0.187,0.425-0.251,0.623-0.251c0.322,0,0.675,0.314,0.675,0.7c0,0.315-0.271,0.604-0.655,0.86
			c-0.456,0.31-1.086,0.463-1.825,0.463c-1.587,0-3.097-0.719-3.097-3.424c0-2.185,1.176-3.426,2.911-3.426
			c1.805,0,2.853,1.299,2.911,2.987c0.006,0.258-0.026,0.547-0.227,0.746c-0.212,0.213-0.48,0.213-0.731,0.213H107.825z
			 M110.215,45.819c-0.18-0.399-0.558-0.688-1.123-0.688c-0.56,0-0.945,0.289-1.119,0.688c-0.109,0.244-0.142,0.436-0.147,0.726
			h2.538C110.351,46.255,110.325,46.063,110.215,45.819z"/>
		<path fill="#24994f" d="M114.894,47.688c0,0.868,0.508,1.49,1.478,1.49c0.418,0,0.829-0.115,1.158-0.359
			c0.263-0.187,0.422-0.251,0.623-0.251c0.32,0,0.674,0.314,0.674,0.7c0,0.315-0.271,0.604-0.655,0.86
			c-0.457,0.31-1.086,0.463-1.825,0.463c-1.587,0-3.096-0.719-3.096-3.424c0-2.185,1.175-3.426,2.91-3.426
			c1.805,0,2.853,1.299,2.911,2.987c0.006,0.258-0.026,0.547-0.227,0.746c-0.211,0.213-0.481,0.213-0.73,0.213H114.894z
			 M117.284,45.819c-0.18-0.399-0.559-0.688-1.124-0.688c-0.559,0-0.945,0.289-1.119,0.688c-0.108,0.244-0.142,0.436-0.146,0.726
			h2.538C117.419,46.255,117.394,46.063,117.284,45.819z"/>
		<path fill="#24994f" d="M123.819,43.742c0.669,0,1.209,0.22,1.581,0.593c0.539,0.539,0.68,1.17,0.68,1.901v3.187
			c0,0.405-0.02,0.566-0.108,0.746c-0.122,0.244-0.386,0.398-0.726,0.398c-0.341,0-0.604-0.154-0.727-0.398
			c-0.09-0.18-0.109-0.341-0.109-0.746v-2.955c0-0.906-0.579-1.208-1.106-1.208c-0.526,0-1.117,0.301-1.117,1.208v2.955
			c0,0.405-0.02,0.566-0.108,0.746c-0.123,0.244-0.387,0.398-0.728,0.398c-0.34,0-0.604-0.154-0.726-0.398
			c-0.09-0.18-0.108-0.341-0.108-0.746v-4.517c0-0.431,0.019-0.56,0.121-0.752c0.122-0.23,0.405-0.385,0.72-0.385
			c0.225,0,0.404,0.07,0.533,0.193c0.135,0.121,0.199,0.262,0.251,0.487C122.567,43.981,123.202,43.742,123.819,43.742z"/>
	</g>
</g>
</svg>
