<svg width="24" height="24" viewBox="0 0 24 24" fill="none" xmlns="http://www.w3.org/2000/svg">
<mask id="mask0" mask-type="alpha" maskUnits="userSpaceOnUse" x="3" y="6" width="18" height="12">
<path d="M4.64475 10.8276L4.64475 10.8276L4.64275 10.8298C4.35313 11.1513 4.19285 11.5688 4.19285 12.0015C4.19285 12.4343 4.35313 12.8517 4.64275 13.1732L4.64275 13.1732L4.64461 13.1753C6.31402 15.0139 9.11418 17.0094 11.9997 16.9663C14.8852 17.0094 17.686 15.014 19.3566 13.1755L19.3586 13.1732C19.6482 12.8517 19.8085 12.4343 19.8085 12.0015C19.8085 11.5688 19.6482 11.1513 19.3586 10.8298L19.3586 10.8298L19.3563 10.8273C17.6463 8.94718 14.839 6.99619 11.9997 7.03856C9.16052 6.99619 6.35311 8.94716 4.64475 10.8276Z" stroke="#111111" stroke-width="1.4" stroke-linecap="round" stroke-linejoin="round"/>
<path d="M14.369 12.0028C14.3689 12.4713 14.2299 12.9293 13.9694 13.3189C13.709 13.7084 13.3389 14.012 12.906 14.1913C12.4731 14.3705 11.9967 14.4173 11.5371 14.3258C11.0776 14.2343 10.6555 14.0086 10.3242 13.6772C9.99287 13.3459 9.76728 12.9237 9.67591 12.4641C9.58454 12.0045 9.6315 11.5282 9.81085 11.0953C9.99019 10.6624 10.2939 10.2924 10.6835 10.0321C11.0731 9.77175 11.5312 9.63281 11.9997 9.63281C12.311 9.63273 12.6191 9.69398 12.9067 9.81306C13.1942 9.93214 13.4555 10.1067 13.6755 10.3268C13.8955 10.5469 14.07 10.8082 14.189 11.0958C14.308 11.3833 14.3692 11.6915 14.369 12.0028Z" stroke="#111111" stroke-width="1.5" stroke-linecap="round" stroke-linejoin="round"/>
</mask>
<g mask="url(#mask0)">
<rect y="0.00244141" width="24" height="24" fill="#161C2D" fill-opacity="0.68"/>
</g>
</svg>
