<?xml version="1.0" encoding="UTF-8"?>
<!DOCTYPE svg PUBLIC "-//W3C//DTD SVG 1.1//EN" "http://www.w3.org/Graphics/SVG/1.1/DTD/svg11.dtd">
<!-- Creator: CorelDRAW 2020 (64-Bit) -->
<svg xmlns="http://www.w3.org/2000/svg" xml:space="preserve" width="120mm" height="152mm" version="1.1" style="shape-rendering:geometricPrecision; text-rendering:geometricPrecision; image-rendering:optimizeQuality; fill-rule:evenodd; clip-rule:evenodd"
viewBox="0 0 11998.92 15198.64"
 xmlns:xlink="http://www.w3.org/1999/xlink"
 xmlns:xodm="http://www.corel.com/coreldraw/odm/2003">
 <defs>
  <style type="text/css">
   <![CDATA[
    .fil0 {fill:none}
    .fil4 {fill:#DE4040;fill-opacity:0.800000}
    .fil3 {fill:#55B16E}
    .fil2 {fill:#FFBC30}
    .fil1 {fill:white}
   ]]>
  </style>
 </defs>
 <g id="Layer_x0020_1">
  <metadata id="CorelCorpID_0Corel-Layer"/>
  <rect class="fil0" x="-0" width="11998.92" height="15198.64"/>
  <path class="fil1" d="M4827.18 3930.27c-440.06,-672.45 -414.91,-1481.51 509.9,-1504.36 1658.39,-41.02 462.73,2990.57 -509.9,1504.36zm1417.86 1608.38c987,2044.79 2705.41,8844.9 178.1,8656.24 -4237.03,0 -3372.45,-7020.54 -2131.06,-9130.76 394.95,-671.41 1578.97,-300.38 1952.96,474.52z"/>
  <path class="fil2" d="M9237.82 1019.5c-1153.75,-155.88 -1597.06,651.48 -1509.47,1250.87 90.75,620.95 819.46,1163.13 1452.59,364.49 535.02,-674.89 842.88,-1509.16 56.87,-1615.36zm-409.14 13175.38c1910.4,0 2268.98,-1483.05 2149.77,-3781.63 -41.83,-806.58 -307.29,-4475.29 -772.16,-6216.69 -108.86,-407.79 -209.34,-959.08 -709.33,-953.3 -485.41,5.67 -1040.83,457.83 -1304.53,1072.98 -1097.02,2558.96 -4044.79,9878.64 636.25,9878.64z"/>
  <path class="fil3" d="M2833.92 4383.61c-680.19,-721.15 -1295.78,-32.03 -1409.49,821.64 -264.47,1985.5 2376.39,203.51 1409.49,-821.64zm-1063.1 2571.14c-950.92,1501.96 -1369.72,7240.12 836.69,7240.12 3822.67,0 2882.3,-4452.6 1393.07,-7033.71 -663.07,-1149.27 -1582.8,-1228.25 -2229.75,-206.41z"/>
  <path class="fil4" d="M4827.18 3930.27c-440.06,-672.45 -414.91,-1481.51 509.9,-1504.36 1658.39,-41.02 462.73,2990.57 -509.9,1504.36zm1417.86 1608.38c987,2044.79 2705.41,8844.9 178.1,8656.24 -4237.03,0 -3372.45,-7020.54 -2131.06,-9130.76 394.95,-671.41 1578.97,-300.38 1952.96,474.52z"/>
 </g>
</svg>
