<?xml version="1.0" encoding="UTF-8"?>
<!DOCTYPE svg PUBLIC "-//W3C//DTD SVG 1.1//EN" "http://www.w3.org/Graphics/SVG/1.1/DTD/svg11.dtd">
<!-- Creator: CorelDRAW 2020 (64-Bit) -->
<svg xmlns="http://www.w3.org/2000/svg" xml:space="preserve" width="140mm" height="100.366mm" version="1.1" style="shape-rendering:geometricPrecision; text-rendering:geometricPrecision; image-rendering:optimizeQuality; fill-rule:evenodd; clip-rule:evenodd"
viewBox="0 0 14000 10036.64"
 xmlns:xlink="http://www.w3.org/1999/xlink"
 xmlns:xodm="http://www.corel.com/coreldraw/odm/2003">
 <defs>
  <style type="text/css">
   <![CDATA[
    .fil0 {fill:none}
    .fil1 {fill:#4D4D4D}
   ]]>
  </style>
 </defs>
 <g id="Layer_x0020_1">
  <metadata id="CorelCorpID_0Corel-Layer"/>
  <polygon class="fil0" points="14000,0 14000,10036.64 -0,10036.64 -0,0 "/>
  <path class="fil1" d="M2937 7453.01l0 -75.6c0,-48.9 31.72,-91.35 79.33,-103.62l117.35 -30.58c113.56,-27.31 197.46,-130.44 198.43,-247.43 0,-479.9 0,-959.8 0,-1439.71 7.57,-592.06 468.99,-1074.72 1074.74,-1074.72 258.87,0 409.51,68.28 595.03,220.74 337.12,283.47 155.98,865.65 -261.12,865.65 -220.13,0 -398.61,-222.28 -398.61,-398.6 0,-176.33 64.69,-249.89 164.16,-322.36 24.88,-19.36 40.89,-49.59 40.89,-83.56 0,-80.64 -69.5,-114.93 -140.35,-114.93 -192.91,0 -349.3,156.4 -349.3,349.3l0 907.02 551.14 0 0 200.34 -551.14 0 0 884.89 0 5.94c0.98,117 84.88,220.12 198.44,247.43l117.36 30.58c47.61,12.27 79.31,54.72 79.31,103.62l0 75.6 -1515.66 0zm1336.7 -5253.05c593.55,0 1074.72,481.17 1074.72,1074.72 0,593.56 -481.17,1074.72 -1074.72,1074.72 -593.55,0 -1074.74,-481.16 -1074.74,-1074.72 0,-593.55 481.19,-1074.72 1074.74,-1074.72zm349.3 1633.21c0,192.89 -156.4,349.29 -349.3,349.29 -192.91,0 -349.3,-156.4 -349.3,-349.29 0,-372.32 0,-744.65 0,-1116.98 0,-192.9 156.39,-349.29 349.3,-349.29 192.91,0 349.3,156.39 349.3,349.29 0,372.33 0,744.66 0,1116.98zm-2548.27 1470.39c593.56,0 1074.72,481.17 1074.72,1074.72 0,593.56 -481.16,1074.73 -1074.72,1074.73 -593.56,0 -1074.73,-481.17 -1074.73,-1074.73 0,-593.55 481.17,-1074.72 1074.73,-1074.72zm349.29 1633.2c0,192.91 -156.39,349.3 -349.29,349.3 -192.9,0 -349.3,-156.39 -349.3,-349.3 0,-372.33 0,-744.64 0,-1116.97 0,-192.91 156.39,-349.29 349.3,-349.29 192.91,0 349.29,156.38 349.29,349.29 0,372.33 0,744.64 0,1116.97zm-213.87 -5559.01l725.42 0 395.11 0 0 75.6c0,48.89 -31.7,91.36 -79.31,103.63l-117.34 30.56c-113.57,27.31 -197.47,130.45 -198.46,247.44l0 1.75c0,1.39 -0.01,2.79 0.03,4.19l-0.03 0 0 1433.76c-7.55,592.06 -468.97,1074.72 -1074.71,1074.72 -258.87,0 -496.34,-91.54 -681.87,-243.99 -109.41,-92.01 -178.99,-229.9 -178.99,-384.05 0,-153 68.53,-290.01 176.56,-381.99 70.26,-61.99 162.51,-99.61 263.55,-99.61 220.15,0 398.61,178.46 398.61,398.6 0,132.49 -64.67,249.89 -164.16,322.36 -24.87,19.36 -40.89,49.59 -40.89,83.55 0,38.9 19.61,70.66 52.03,91.15 51.48,29.9 111.31,47.04 175.16,47.04 192.9,0 349.29,-156.4 349.29,-349.29l0 -1992.25 -0.02 0 0.02 -4.19 0 -1.75c-0.99,-117 -84.89,-220.13 -198.45,-247.44l-117.35 -30.56c-47.61,-12.27 -79.31,-54.74 -79.31,-103.63l0 -75.6 395.11 0zm9715.12 3926.11c593.56,0 1074.73,481.17 1074.73,1074.71 0,40.07 -2.26,79.61 -6.54,118.52 -472.49,0 -944.98,0 -1417.48,0 -26.67,668.7 721.3,949.11 1014.16,550.91 16.2,-22.03 51.08,-46.9 -12.43,-104.96 -29.9,-34.14 -48.04,-78.86 -48.04,-127.81 0,-107.19 86.9,-194.08 194.09,-194.08 131.4,0 191.32,90.08 189.89,210.21 -60.39,342.3 -407.09,652.3 -988.38,621.94 -593.51,-7.16 -1074.72,-481.18 -1074.72,-1074.73 0,-593.54 481.17,-1074.71 1074.72,-1074.71zm-349.29 980.52l698.59 0 0 -464.29c0,-192.92 -156.38,-349.3 -349.3,-349.3 -192.91,0 -349.29,156.38 -349.29,349.3l0 464.29zm-2089.06 1168.9c-300.1,0 -557.06,-105.03 -770.88,-316.97 -215.69,-210.08 -322.6,-461.42 -322.6,-755.87 0,-288.86 106.91,-540.19 318.85,-755.89 210.63,-212.47 467.55,-319.36 768.94,-320.69 291.69,0 562.43,117.86 767.19,324.44 211.81,213.67 318.69,462.31 320.68,744.11l0.05 1208.22c-4.59,359.74 -181.59,679.09 -455.66,874.32 -400.11,285 -1157.02,272.01 -1541.06,-43.58 -109.42,-92.01 -178.99,-229.9 -178.99,-384.05 0,-153.01 68.52,-290.01 176.55,-382.01 70.26,-61.98 162.51,-99.6 263.57,-99.6 220.14,0 398.6,178.46 398.6,398.6 0,132.51 -64.67,249.9 -164.16,322.37 -24.88,19.36 -40.89,49.59 -40.89,83.55 0,38.9 19.61,70.65 52.03,91.15 51.47,29.9 111.31,47.04 175.15,47.04 720.89,0 576.3,-592.65 576.3,-1090.83 -107.98,37.08 -222.39,55.69 -343.67,55.69zm-354.93 -1633.22l0 1116.98c0,192.91 156.39,349.3 349.3,349.3 192.91,0 349.3,-156.39 349.3,-349.3l0 -564.63 0 -552.35c0,-192.91 -156.39,-349.3 -349.3,-349.3 -192.91,0 -349.3,156.39 -349.3,349.3zm-1724.95 1137.86l-194.43 -473.22 -996.13 0c-84.07,230.22 -143.23,392.22 -184.48,505.14l0 0.01 -169.16 463.16 -606.31 0 0 -75.6c0,-48.9 31.71,-91.35 79.32,-103.62l117.35 -30.58c90.69,-21.8 213.46,-91.98 261.05,-178.97l1.13 -1.99c35.24,-66.82 163.05,-367.13 382.85,-901.01l422.8 -1025.92c158.94,-114.86 292.56,-279.91 404.31,-480.91 6.73,-12.1 70.78,-135.4 71.12,-135.51l187.64 0 850.03 2111.2c94.77,236.91 160.25,388.83 196.46,455.43 45.36,76.99 139.33,137.68 222.51,157.68l117.34 30.58c47.62,12.27 79.32,54.72 79.32,103.62l0 75.6 -1039.31 0 -203.41 -495.09zm-699.44 -1720.46l-411.82 1046.91 833.35 0 -421.53 -1046.91zm-964.33 -102.3c-297.88,-75.39 -591.98,-272.83 -591.98,-593.09 0,-242.91 186.26,-481.61 440.12,-481.61 220.14,0 398.6,222.3 398.6,398.61 0,176.32 -64.67,249.9 -164.16,322.36 -24.88,19.36 -40.88,49.6 -40.88,83.55 0,38.9 19.61,70.65 52.02,91.15 51.48,29.91 111.32,47.04 175.14,47.04 273.71,0 462.61,-362.1 366.72,-576.32l-818.74 -1829.42c-44.2,-98.88 -49.65,-158.95 -169.18,-187.67l-117.36 -30.58c-47.6,-12.27 -79.31,-54.72 -79.31,-103.62l0 -75.6 982.55 0 314.37 702.27 332.33 742.42 329.18 -735.37 317.51 -709.32 585.15 0 0 75.6c0,48.9 -31.69,91.35 -79.31,103.62l-117.34 30.58c-99.47,23.9 -110.42,56.52 -147.13,138.54l-695.45 1553.84c-75.03,167.62 -145.43,330.62 -226.66,476.72 -248.75,447.44 -579.53,656.28 -1046.19,556.3z"/>
 </g>
</svg>
