<?xml version="1.0" encoding="UTF-8"?>
<!DOCTYPE svg PUBLIC "-//W3C//DTD SVG 1.1//EN" "http://www.w3.org/Graphics/SVG/1.1/DTD/svg11.dtd">
<!-- Creator: CorelDRAW 2020 (64-Bit) -->
<svg xmlns="http://www.w3.org/2000/svg" xml:space="preserve" width="120mm" height="152mm" version="1.1" style="shape-rendering:geometricPrecision; text-rendering:geometricPrecision; image-rendering:optimizeQuality; fill-rule:evenodd; clip-rule:evenodd"
viewBox="0 0 11998.92 15198.64"
 xmlns:xlink="http://www.w3.org/1999/xlink"
 xmlns:xodm="http://www.corel.com/coreldraw/odm/2003">
 <defs>
  <style type="text/css">
   <![CDATA[
    .fil0 {fill:none}
    .fil1 {fill:#333333}
   ]]>
  </style>
 </defs>
 <g id="Layer_x0020_1">
  <metadata id="CorelCorpID_0Corel-Layer"/>
  <g id="_2727503792400">
   <rect class="fil0" x="-0" width="11998.92" height="15198.64"/>
   <path class="fil1" d="M2833.92 4383.61c-680.19,-721.15 -1295.78,-32.03 -1409.49,821.64 -264.47,1985.5 2376.39,203.51 1409.49,-821.64zm3411.13 1155.04c987,2044.79 2705.41,8844.9 178.1,8656.24 -4237.03,0 -3372.45,-7020.54 -2131.06,-9130.76 394.95,-671.41 1578.97,-300.38 1952.96,474.52zm-1417.86 -1608.38c-440.06,-672.45 -414.91,-1481.51 509.9,-1504.36 1658.39,-41.02 462.73,2990.57 -509.9,1504.36zm4410.64 -2910.77c-1153.75,-155.88 -1597.06,651.48 -1509.47,1250.87 90.75,620.95 819.46,1163.13 1452.59,364.49 535.02,-674.89 842.88,-1509.16 56.87,-1615.36zm-409.14 13175.38c1910.4,0 2268.98,-1483.05 2149.77,-3781.63 -41.83,-806.58 -307.29,-4475.29 -772.16,-6216.69 -108.86,-407.79 -209.34,-959.08 -709.33,-953.3 -485.41,5.67 -1040.83,457.83 -1304.53,1072.98 -297.08,692.98 -729.76,1735.34 -1110.03,2886.66 212.95,687.03 393.35,1388.75 537.93,2092.84 104.14,507.18 190.27,1020.01 247.76,1534.66 52.41,469.14 82.81,948.41 65.36,1420.47 -19.33,523.21 -104.42,1208.96 -442.24,1664.88 352.95,179.02 793.03,279.12 1337.47,279.12zm-7057.85 -7240.12c-950.92,1501.96 -1369.72,7240.12 836.69,7240.12 792.4,0 1379.58,-191.77 1800.19,-518.09 -1167.85,-1044.19 -1383.21,-2974.89 -1323.86,-4447.41 32.81,-814.04 150.62,-1642.04 347.18,-2432.78 21.65,-87.08 44.72,-175.79 69.28,-265.47 -577.85,-495.97 -1233.74,-359.36 -1729.48,423.63z"/>
  </g>
 </g>
</svg>
