<?xml version="1.0" encoding="UTF-8"?>
<!DOCTYPE svg PUBLIC "-//W3C//DTD SVG 1.1//EN" "http://www.w3.org/Graphics/SVG/1.1/DTD/svg11.dtd">
<!-- Creator: CorelDRAW 2020 (64-Bit) -->
<svg xmlns="http://www.w3.org/2000/svg" xml:space="preserve" width="120mm" height="152mm" version="1.1" style="shape-rendering:geometricPrecision; text-rendering:geometricPrecision; image-rendering:optimizeQuality; fill-rule:evenodd; clip-rule:evenodd"
viewBox="0 0 11998.92 15198.64"
 xmlns:xlink="http://www.w3.org/1999/xlink"
 xmlns:xodm="http://www.corel.com/coreldraw/odm/2003">
 <defs>
  <style type="text/css">
   <![CDATA[
    .fil0 {fill:none}
    .fil4 {fill:#E03A3A;fill-opacity:0.800000}
    .fil3 {fill:#55B16E}
    .fil2 {fill:#FFBC30}
    .fil1 {fill:white}
   ]]>
  </style>
 </defs>
 <g id="Layer_x0020_1">
  <metadata id="CorelCorpID_0Corel-Layer"/>
  <g id="_2727669664896">
   <rect class="fil0" x="-0" width="11998.92" height="15198.64"/>
   <g>
    <path class="fil1" d="M4827.18 3930.27c-440.06,-672.45 -414.91,-1481.51 509.9,-1504.36 1658.39,-41.02 462.73,2990.57 -509.9,1504.36zm1417.86 1608.38c987,2044.79 2705.41,8844.9 178.1,8656.24 -4237.03,0 -3372.45,-7020.54 -2131.06,-9130.76 394.95,-671.41 1578.97,-300.38 1952.96,474.52zm-1589.13 -2398.1c5.61,227.3 100.03,487.83 259.73,731.84 250.16,382.25 506.88,422.56 706.88,291.68 126.77,-82.97 236.37,-228.53 314.03,-400.51 79.5,-176.05 124.4,-377.13 119.73,-566.24 -8.92,-360.69 -208.83,-678.56 -716.72,-666 -197.25,4.87 -347.1,48.01 -455.21,118.75 -81.17,53.12 -139.03,122.82 -175.94,203.97 -38.41,84.43 -55.09,181.78 -52.5,286.5zm2858.12 7324.82c-260.68,-1858.02 -895.53,-3910.18 -1364.06,-4880.83 -115.63,-239.59 -315.93,-437.99 -545.23,-572.87 -164.72,-96.9 -343.38,-160.61 -515.48,-182.89 -166.73,-21.6 -326.45,-4.24 -459.18,59.81 -99.64,48.1 -184.91,123.24 -247.05,228.87 -537.2,913.19 -1002.85,2763.8 -1002.85,4555.34l0.41 0c0,860.43 107.49,1704.74 366.23,2421.01 255.38,706.96 658.2,1289.57 1250.9,1638.23 387.38,227.87 858.36,357.02 1425.43,357.02l0 0.12c2.6,0 5.22,0.09 7.85,0.29 138.55,10.33 262.3,-2.06 372.24,-34.9 424.97,-126.92 662.18,-571.49 765.96,-1196.93 108.58,-654.4 70.03,-1499.8 -55.17,-2392.28z"/>
   </g>
   <g>
    <path class="fil2" d="M9237.82 1019.5c-1153.75,-155.88 -1597.06,651.48 -1509.47,1250.87 90.75,620.95 819.46,1163.13 1452.59,364.49 535.02,-674.89 842.88,-1509.16 56.87,-1615.36zm-409.14 13175.38c1910.4,0 2268.98,-1483.05 2149.77,-3781.63 -41.83,-806.58 -307.29,-4475.29 -772.16,-6216.69 -108.86,-407.79 -209.34,-959.08 -709.33,-953.3 -485.41,5.67 -1040.83,457.83 -1304.53,1072.98 -1097.02,2558.96 -4044.79,9878.64 636.25,9878.64zm-97.35 -13073.42c145.45,-21.25 309.32,-22.12 492.45,2.62 119.61,16.16 207.58,50.34 268.44,98.58 49.17,38.98 81.27,88.7 98.77,146.54 19.2,63.44 21.93,137.29 10.98,218.31 -38.96,288.33 -243.04,652.85 -503.68,981.63 -177.01,223.29 -357.82,330.19 -524.86,354.6 -80.01,11.69 -157.12,4.7 -229.06,-17.17 -73.32,-22.28 -142.57,-60.28 -205.27,-110 -160.8,-127.46 -275.14,-329.14 -306.16,-541.48 -12.58,-86.13 -13.06,-176.85 -0.76,-267.88 26.15,-193.6 109.55,-389.36 256.36,-546.81 147.04,-157.72 359.06,-277.49 642.8,-318.94zm1837.86 11999.11c-295.14,619.48 -832.67,968.5 -1740.5,968.5 -2246.98,0 -2660.56,-1774.82 -2380.33,-3859.85 287.12,-2136.32 1294.66,-4596.75 1841.21,-5871.65 124.7,-290.89 317.81,-543.07 536.9,-723.28 215.05,-176.87 452.86,-283.1 671.33,-285.64 379.11,-4.37 489.08,421.22 581.16,777.69 11.87,45.99 23.24,89.96 25.25,97.49 172.49,646.19 317.73,1563.51 434.11,2500.57 195.25,1571.99 308.68,3191.71 334.74,3694.21 58.74,1132.81 1.05,2061.98 -303.86,2701.95z"/>
   </g>
   <g>
    <path class="fil3" d="M2833.92 4383.61c-680.19,-721.15 -1295.78,-32.03 -1409.49,821.64 -264.47,1985.5 2376.39,203.51 1409.49,-821.64zm-1063.1 2571.14c-950.92,1501.96 -1369.72,7240.12 836.69,7240.12 3822.67,0 2882.3,-4452.6 1393.07,-7033.71 -663.07,-1149.27 -1582.8,-1228.25 -2229.75,-206.41zm659.75 -2734.78c103.63,39.55 213.14,115.83 326.46,235.97 253.51,268.78 218.51,601.8 53.05,887.34 -138.45,238.94 -364.47,445 -594.39,560.01 -211.64,105.88 -421.49,132.7 -551.58,27.78 -123.38,-99.51 -187.14,-321.58 -135.12,-712.19 34.93,-262.23 119.47,-507.18 239.48,-694.5 86.55,-135.09 190.35,-238.43 305.28,-293.35 107.66,-51.45 228.3,-60.1 356.82,-11.06zm-1324.85 6586.41c0,-1513.34 320.62,-3110.3 754.38,-3795.42 163.55,-258.32 343.41,-441.05 530.31,-548.88 143.03,-82.52 290.67,-121.06 438.38,-115.88 148.08,5.19 298.38,54.79 446.36,148.47 222.93,141.14 439.09,381.02 634.07,718.99 704.4,1220.84 1284.63,2863.64 1284.63,4243.76 0,499 -76.13,962.09 -250.31,1355.64 -171.74,388.06 -439.58,709.55 -824.91,931.87 -380.11,219.32 -876.83,344.14 -1511.14,344.14 -205.25,0 -384.95,-54.31 -541.19,-153.23 -340.44,-215.54 -578.64,-644.67 -733.19,-1190.46 -158.47,-559.65 -227.4,-1239.12 -227.4,-1938.99z"/>
   </g>
   <g>
    <path class="fil4" d="M4827.18 3930.27c-440.06,-672.45 -414.91,-1481.51 509.9,-1504.36 1658.39,-41.02 462.73,2990.57 -509.9,1504.36zm1417.86 1608.38c987,2044.79 2705.41,8844.9 178.1,8656.24 -4237.03,0 -3372.45,-7020.54 -2131.06,-9130.76 394.95,-671.41 1578.97,-300.38 1952.96,474.52zm-1589.13 -2398.1c5.61,227.3 100.03,487.83 259.73,731.84 250.16,382.25 506.88,422.56 706.88,291.68 126.77,-82.97 236.37,-228.53 314.03,-400.51 79.5,-176.05 124.4,-377.13 119.73,-566.24 -8.92,-360.69 -208.83,-678.56 -716.72,-666 -197.25,4.87 -347.1,48.01 -455.21,118.75 -81.17,53.12 -139.03,122.82 -175.94,203.97 -38.41,84.43 -55.09,181.78 -52.5,286.5zm2858.12 7324.82c-260.68,-1858.02 -895.53,-3910.18 -1364.06,-4880.83 -115.63,-239.59 -315.93,-437.99 -545.23,-572.87 -164.72,-96.9 -343.38,-160.61 -515.48,-182.89 -166.73,-21.6 -326.45,-4.24 -459.18,59.81 -99.64,48.1 -184.91,123.24 -247.05,228.87 -537.2,913.19 -1002.85,2763.8 -1002.85,4555.34l0.41 0c0,860.43 107.49,1704.74 366.23,2421.01 255.38,706.96 658.2,1289.57 1250.9,1638.23 387.38,227.87 858.36,357.02 1425.43,357.02l0 0.12c2.6,0 5.22,0.09 7.85,0.29 138.55,10.33 262.3,-2.06 372.24,-34.9 424.97,-126.92 662.18,-571.49 765.96,-1196.93 108.58,-654.4 70.03,-1499.8 -55.17,-2392.28z"/>
   </g>
  </g>
 </g>
</svg>
